<mxfile host="65bd71144e">
    <diagram id="Gdne3fuGyoJQLz83iK95" name="Page-2">
        <mxGraphModel dx="474" dy="417" grid="1" gridSize="10" guides="1" tooltips="1" connect="1" arrows="1" fold="1" page="1" pageScale="1" pageWidth="850" pageHeight="1100" math="0" shadow="0">
            <root>
                <mxCell id="0"/>
                <mxCell id="1" parent="0"/>
            </root>
        </mxGraphModel>
    </diagram>
    <diagram id="0shooXZ6MGkdKABtGN68" name="Page-1">
        <mxGraphModel dx="1600" dy="2508" grid="1" gridSize="10" guides="1" tooltips="1" connect="1" arrows="1" fold="1" page="1" pageScale="1" pageWidth="850" pageHeight="1100" math="0" shadow="0">
            <root>
                <mxCell id="0"/>
                <mxCell id="1" parent="0"/>
                <mxCell id="2" value="" style="rounded=0;whiteSpace=wrap;html=1;strokeColor=#350505;fillColor=#350505;" parent="1" vertex="1">
                    <mxGeometry x="240" y="200" width="40" height="40" as="geometry"/>
                </mxCell>
                <mxCell id="3" value="" style="rounded=0;whiteSpace=wrap;html=1;strokeColor=#350505;fillColor=#350505;" parent="1" vertex="1">
                    <mxGeometry x="280" y="160" width="40" height="40" as="geometry"/>
                </mxCell>
                <mxCell id="4" value="" style="rounded=0;whiteSpace=wrap;html=1;strokeColor=#350505;fillColor=#350505;" parent="1" vertex="1">
                    <mxGeometry x="240" y="240" width="40" height="40" as="geometry"/>
                </mxCell>
                <mxCell id="5" value="" style="rounded=0;whiteSpace=wrap;html=1;strokeColor=#350505;fillColor=#350505;" parent="1" vertex="1">
                    <mxGeometry x="240" y="280" width="40" height="40" as="geometry"/>
                </mxCell>
                <mxCell id="6" value="" style="rounded=0;whiteSpace=wrap;html=1;strokeColor=#350505;fillColor=#350505;" parent="1" vertex="1">
                    <mxGeometry x="280" y="320" width="40" height="40" as="geometry"/>
                </mxCell>
                <mxCell id="7" value="" style="rounded=0;whiteSpace=wrap;html=1;strokeColor=#350505;fillColor=#350505;" parent="1" vertex="1">
                    <mxGeometry x="320" y="360" width="40" height="40" as="geometry"/>
                </mxCell>
                <mxCell id="8" value="" style="rounded=0;whiteSpace=wrap;html=1;strokeColor=#350505;fillColor=#350505;" parent="1" vertex="1">
                    <mxGeometry x="320" y="120" width="40" height="40" as="geometry"/>
                </mxCell>
                <mxCell id="16" value="" style="rounded=0;whiteSpace=wrap;html=1;strokeColor=#350505;fillColor=#350505;" parent="1" vertex="1">
                    <mxGeometry x="360" y="120" width="40" height="40" as="geometry"/>
                </mxCell>
                <mxCell id="17" value="" style="rounded=0;whiteSpace=wrap;html=1;strokeColor=#350505;fillColor=#350505;" parent="1" vertex="1">
                    <mxGeometry x="400" y="120" width="40" height="40" as="geometry"/>
                </mxCell>
                <mxCell id="18" value="" style="rounded=0;whiteSpace=wrap;html=1;strokeColor=#350505;fillColor=#350505;" parent="1" vertex="1">
                    <mxGeometry x="440" y="120" width="40" height="40" as="geometry"/>
                </mxCell>
                <mxCell id="19" value="" style="rounded=0;whiteSpace=wrap;html=1;strokeColor=#350505;fillColor=#350505;" parent="1" vertex="1">
                    <mxGeometry x="480" y="120" width="40" height="40" as="geometry"/>
                </mxCell>
                <mxCell id="20" value="" style="rounded=0;whiteSpace=wrap;html=1;strokeColor=#350505;fillColor=#350505;" parent="1" vertex="1">
                    <mxGeometry x="520" y="120" width="40" height="40" as="geometry"/>
                </mxCell>
                <mxCell id="21" value="" style="rounded=0;whiteSpace=wrap;html=1;strokeColor=#350505;fillColor=#350505;" parent="1" vertex="1">
                    <mxGeometry x="560" y="120" width="40" height="40" as="geometry"/>
                </mxCell>
                <mxCell id="22" value="" style="rounded=0;whiteSpace=wrap;html=1;strokeColor=#350505;fillColor=#350505;" parent="1" vertex="1">
                    <mxGeometry x="600" y="120" width="40" height="40" as="geometry"/>
                </mxCell>
                <mxCell id="23" value="" style="rounded=0;whiteSpace=wrap;html=1;strokeColor=#350505;fillColor=#350505;" parent="1" vertex="1">
                    <mxGeometry x="600" y="840" width="40" height="40" as="geometry"/>
                </mxCell>
                <mxCell id="24" value="" style="rounded=0;whiteSpace=wrap;html=1;strokeColor=#350505;fillColor=#350505;" parent="1" vertex="1">
                    <mxGeometry x="560" y="800" width="40" height="40" as="geometry"/>
                </mxCell>
                <mxCell id="25" value="" style="rounded=0;whiteSpace=wrap;html=1;strokeColor=#350505;fillColor=#350505;" parent="1" vertex="1">
                    <mxGeometry x="600" y="880" width="40" height="40" as="geometry"/>
                </mxCell>
                <mxCell id="26" value="" style="rounded=0;whiteSpace=wrap;html=1;strokeColor=#350505;fillColor=#350505;" parent="1" vertex="1">
                    <mxGeometry x="600" y="920" width="40" height="40" as="geometry"/>
                </mxCell>
                <mxCell id="27" value="" style="rounded=0;whiteSpace=wrap;html=1;strokeColor=#350505;fillColor=#350505;" parent="1" vertex="1">
                    <mxGeometry x="560" y="960" width="40" height="40" as="geometry"/>
                </mxCell>
                <mxCell id="30" value="" style="rounded=0;whiteSpace=wrap;html=1;strokeColor=#350505;fillColor=#350505;" parent="1" vertex="1">
                    <mxGeometry x="360" y="360" width="40" height="40" as="geometry"/>
                </mxCell>
                <mxCell id="31" value="" style="rounded=0;whiteSpace=wrap;html=1;strokeColor=#350505;fillColor=#350505;" parent="1" vertex="1">
                    <mxGeometry x="400" y="360" width="40" height="40" as="geometry"/>
                </mxCell>
                <mxCell id="32" value="" style="rounded=0;whiteSpace=wrap;html=1;strokeColor=#350505;fillColor=#350505;" parent="1" vertex="1">
                    <mxGeometry x="440" y="360" width="40" height="40" as="geometry"/>
                </mxCell>
                <mxCell id="33" value="" style="rounded=0;whiteSpace=wrap;html=1;strokeColor=#350505;fillColor=#350505;" parent="1" vertex="1">
                    <mxGeometry x="480" y="360" width="40" height="40" as="geometry"/>
                </mxCell>
                <mxCell id="34" value="" style="rounded=0;whiteSpace=wrap;html=1;strokeColor=#350505;fillColor=#350505;" parent="1" vertex="1">
                    <mxGeometry x="520" y="360" width="40" height="40" as="geometry"/>
                </mxCell>
                <mxCell id="35" value="" style="rounded=0;whiteSpace=wrap;html=1;strokeColor=#350505;fillColor=#350505;" parent="1" vertex="1">
                    <mxGeometry x="560" y="360" width="40" height="40" as="geometry"/>
                </mxCell>
                <mxCell id="36" value="" style="rounded=0;whiteSpace=wrap;html=1;strokeColor=#350505;fillColor=#350505;" parent="1" vertex="1">
                    <mxGeometry x="600" y="360" width="40" height="40" as="geometry"/>
                </mxCell>
                <mxCell id="37" value="" style="rounded=0;whiteSpace=wrap;html=1;strokeColor=#350505;fillColor=#350505;" parent="1" vertex="1">
                    <mxGeometry x="240" y="480" width="40" height="40" as="geometry"/>
                </mxCell>
                <mxCell id="38" value="" style="rounded=0;whiteSpace=wrap;html=1;strokeColor=#350505;fillColor=#350505;" parent="1" vertex="1">
                    <mxGeometry x="240" y="440" width="40" height="40" as="geometry"/>
                </mxCell>
                <mxCell id="39" value="" style="rounded=0;whiteSpace=wrap;html=1;strokeColor=#350505;fillColor=#350505;" parent="1" vertex="1">
                    <mxGeometry x="240" y="560" width="40" height="40" as="geometry"/>
                </mxCell>
                <mxCell id="40" value="" style="rounded=0;whiteSpace=wrap;html=1;strokeColor=#350505;fillColor=#350505;" parent="1" vertex="1">
                    <mxGeometry x="240" y="520" width="40" height="40" as="geometry"/>
                </mxCell>
                <mxCell id="41" value="" style="rounded=0;whiteSpace=wrap;html=1;strokeColor=#350505;fillColor=#350505;" parent="1" vertex="1">
                    <mxGeometry x="240" y="600" width="40" height="40" as="geometry"/>
                </mxCell>
                <mxCell id="42" value="" style="rounded=0;whiteSpace=wrap;html=1;strokeColor=#350505;fillColor=#350505;" parent="1" vertex="1">
                    <mxGeometry x="240" y="680" width="40" height="40" as="geometry"/>
                </mxCell>
                <mxCell id="43" value="" style="rounded=0;whiteSpace=wrap;html=1;strokeColor=#350505;fillColor=#350505;" parent="1" vertex="1">
                    <mxGeometry x="240" y="640" width="40" height="40" as="geometry"/>
                </mxCell>
                <mxCell id="44" value="" style="rounded=0;whiteSpace=wrap;html=1;strokeColor=#350505;fillColor=#350505;" parent="1" vertex="1">
                    <mxGeometry x="280" y="440" width="40" height="40" as="geometry"/>
                </mxCell>
                <mxCell id="45" value="" style="rounded=0;whiteSpace=wrap;html=1;strokeColor=#350505;fillColor=#350505;" parent="1" vertex="1">
                    <mxGeometry x="320" y="440" width="40" height="40" as="geometry"/>
                </mxCell>
                <mxCell id="46" value="" style="rounded=0;whiteSpace=wrap;html=1;strokeColor=#350505;fillColor=#350505;" parent="1" vertex="1">
                    <mxGeometry x="360" y="440" width="40" height="40" as="geometry"/>
                </mxCell>
                <mxCell id="47" value="" style="rounded=0;whiteSpace=wrap;html=1;strokeColor=#350505;fillColor=#350505;" parent="1" vertex="1">
                    <mxGeometry x="400" y="440" width="40" height="40" as="geometry"/>
                </mxCell>
                <mxCell id="48" value="" style="rounded=0;whiteSpace=wrap;html=1;strokeColor=#350505;fillColor=#350505;" parent="1" vertex="1">
                    <mxGeometry x="440" y="440" width="40" height="40" as="geometry"/>
                </mxCell>
                <mxCell id="49" value="" style="rounded=0;whiteSpace=wrap;html=1;strokeColor=#350505;fillColor=#350505;" parent="1" vertex="1">
                    <mxGeometry x="480" y="440" width="40" height="40" as="geometry"/>
                </mxCell>
                <mxCell id="50" value="" style="rounded=0;whiteSpace=wrap;html=1;strokeColor=#350505;fillColor=#350505;" parent="1" vertex="1">
                    <mxGeometry x="520" y="440" width="40" height="40" as="geometry"/>
                </mxCell>
                <mxCell id="51" value="" style="rounded=0;whiteSpace=wrap;html=1;strokeColor=#350505;fillColor=#350505;" parent="1" vertex="1">
                    <mxGeometry x="560" y="440" width="40" height="40" as="geometry"/>
                </mxCell>
                <mxCell id="52" value="" style="rounded=0;whiteSpace=wrap;html=1;strokeColor=#350505;fillColor=#350505;" parent="1" vertex="1">
                    <mxGeometry x="280" y="680" width="40" height="40" as="geometry"/>
                </mxCell>
                <mxCell id="53" value="" style="rounded=0;whiteSpace=wrap;html=1;strokeColor=#350505;fillColor=#350505;" parent="1" vertex="1">
                    <mxGeometry x="320" y="680" width="40" height="40" as="geometry"/>
                </mxCell>
                <mxCell id="54" value="" style="rounded=0;whiteSpace=wrap;html=1;strokeColor=#350505;fillColor=#350505;" parent="1" vertex="1">
                    <mxGeometry x="360" y="680" width="40" height="40" as="geometry"/>
                </mxCell>
                <mxCell id="55" value="" style="rounded=0;whiteSpace=wrap;html=1;strokeColor=#350505;fillColor=#350505;" parent="1" vertex="1">
                    <mxGeometry x="400" y="680" width="40" height="40" as="geometry"/>
                </mxCell>
                <mxCell id="56" value="" style="rounded=0;whiteSpace=wrap;html=1;strokeColor=#350505;fillColor=#350505;" parent="1" vertex="1">
                    <mxGeometry x="440" y="680" width="40" height="40" as="geometry"/>
                </mxCell>
                <mxCell id="57" value="" style="rounded=0;whiteSpace=wrap;html=1;strokeColor=#350505;fillColor=#350505;" parent="1" vertex="1">
                    <mxGeometry x="480" y="680" width="40" height="40" as="geometry"/>
                </mxCell>
                <mxCell id="58" value="" style="rounded=0;whiteSpace=wrap;html=1;strokeColor=#350505;fillColor=#350505;" parent="1" vertex="1">
                    <mxGeometry x="520" y="680" width="40" height="40" as="geometry"/>
                </mxCell>
                <mxCell id="59" value="" style="rounded=0;whiteSpace=wrap;html=1;strokeColor=#350505;fillColor=#350505;" parent="1" vertex="1">
                    <mxGeometry x="560" y="680" width="40" height="40" as="geometry"/>
                </mxCell>
                <mxCell id="60" value="" style="rounded=0;whiteSpace=wrap;html=1;strokeColor=#350505;fillColor=#350505;" parent="1" vertex="1">
                    <mxGeometry x="600" y="440" width="40" height="40" as="geometry"/>
                </mxCell>
                <mxCell id="61" value="" style="rounded=0;whiteSpace=wrap;html=1;strokeColor=#350505;fillColor=#350505;" parent="1" vertex="1">
                    <mxGeometry x="600" y="680" width="40" height="40" as="geometry"/>
                </mxCell>
                <mxCell id="62" value="" style="rounded=0;whiteSpace=wrap;html=1;strokeColor=#350505;fillColor=#350505;" parent="1" vertex="1">
                    <mxGeometry x="240" y="800" width="40" height="40" as="geometry"/>
                </mxCell>
                <mxCell id="63" value="" style="rounded=0;whiteSpace=wrap;html=1;strokeColor=#350505;fillColor=#350505;" parent="1" vertex="1">
                    <mxGeometry x="240" y="760" width="40" height="40" as="geometry"/>
                </mxCell>
                <mxCell id="64" value="" style="rounded=0;whiteSpace=wrap;html=1;strokeColor=#350505;fillColor=#350505;" parent="1" vertex="1">
                    <mxGeometry x="240" y="880" width="40" height="40" as="geometry"/>
                </mxCell>
                <mxCell id="65" value="" style="rounded=0;whiteSpace=wrap;html=1;strokeColor=#350505;fillColor=#350505;" parent="1" vertex="1">
                    <mxGeometry x="240" y="840" width="40" height="40" as="geometry"/>
                </mxCell>
                <mxCell id="66" value="" style="rounded=0;whiteSpace=wrap;html=1;strokeColor=#350505;fillColor=#350505;" parent="1" vertex="1">
                    <mxGeometry x="240" y="920" width="40" height="40" as="geometry"/>
                </mxCell>
                <mxCell id="67" value="" style="rounded=0;whiteSpace=wrap;html=1;strokeColor=#350505;fillColor=#350505;" parent="1" vertex="1">
                    <mxGeometry x="240" y="1000" width="40" height="40" as="geometry"/>
                </mxCell>
                <mxCell id="68" value="" style="rounded=0;whiteSpace=wrap;html=1;strokeColor=#350505;fillColor=#350505;" parent="1" vertex="1">
                    <mxGeometry x="240" y="960" width="40" height="40" as="geometry"/>
                </mxCell>
                <mxCell id="69" value="" style="rounded=0;whiteSpace=wrap;html=1;strokeColor=#350505;fillColor=#350505;" parent="1" vertex="1">
                    <mxGeometry x="280" y="760" width="40" height="40" as="geometry"/>
                </mxCell>
                <mxCell id="70" value="" style="rounded=0;whiteSpace=wrap;html=1;strokeColor=#350505;fillColor=#350505;" parent="1" vertex="1">
                    <mxGeometry x="320" y="760" width="40" height="40" as="geometry"/>
                </mxCell>
                <mxCell id="71" value="" style="rounded=0;whiteSpace=wrap;html=1;strokeColor=#350505;fillColor=#350505;" parent="1" vertex="1">
                    <mxGeometry x="360" y="760" width="40" height="40" as="geometry"/>
                </mxCell>
                <mxCell id="72" value="" style="rounded=0;whiteSpace=wrap;html=1;strokeColor=#350505;fillColor=#350505;" parent="1" vertex="1">
                    <mxGeometry x="400" y="760" width="40" height="40" as="geometry"/>
                </mxCell>
                <mxCell id="73" value="" style="rounded=0;whiteSpace=wrap;html=1;strokeColor=#350505;fillColor=#350505;" parent="1" vertex="1">
                    <mxGeometry x="440" y="760" width="40" height="40" as="geometry"/>
                </mxCell>
                <mxCell id="74" value="" style="rounded=0;whiteSpace=wrap;html=1;strokeColor=#350505;fillColor=#350505;" parent="1" vertex="1">
                    <mxGeometry x="480" y="760" width="40" height="40" as="geometry"/>
                </mxCell>
                <mxCell id="75" value="" style="rounded=0;whiteSpace=wrap;html=1;strokeColor=#350505;fillColor=#350505;" parent="1" vertex="1">
                    <mxGeometry x="520" y="760" width="40" height="40" as="geometry"/>
                </mxCell>
                <mxCell id="77" value="" style="rounded=0;whiteSpace=wrap;html=1;strokeColor=#350505;fillColor=#350505;" parent="1" vertex="1">
                    <mxGeometry x="280" y="1000" width="40" height="40" as="geometry"/>
                </mxCell>
                <mxCell id="78" value="" style="rounded=0;whiteSpace=wrap;html=1;strokeColor=#350505;fillColor=#350505;" parent="1" vertex="1">
                    <mxGeometry x="320" y="1000" width="40" height="40" as="geometry"/>
                </mxCell>
                <mxCell id="79" value="" style="rounded=0;whiteSpace=wrap;html=1;strokeColor=#350505;fillColor=#350505;" parent="1" vertex="1">
                    <mxGeometry x="360" y="1000" width="40" height="40" as="geometry"/>
                </mxCell>
                <mxCell id="80" value="" style="rounded=0;whiteSpace=wrap;html=1;strokeColor=#350505;fillColor=#350505;" parent="1" vertex="1">
                    <mxGeometry x="400" y="1000" width="40" height="40" as="geometry"/>
                </mxCell>
                <mxCell id="81" value="" style="rounded=0;whiteSpace=wrap;html=1;strokeColor=#350505;fillColor=#350505;" parent="1" vertex="1">
                    <mxGeometry x="440" y="1000" width="40" height="40" as="geometry"/>
                </mxCell>
                <mxCell id="82" value="" style="rounded=0;whiteSpace=wrap;html=1;strokeColor=#350505;fillColor=#350505;" parent="1" vertex="1">
                    <mxGeometry x="480" y="1000" width="40" height="40" as="geometry"/>
                </mxCell>
                <mxCell id="83" value="" style="rounded=0;whiteSpace=wrap;html=1;strokeColor=#350505;fillColor=#350505;" parent="1" vertex="1">
                    <mxGeometry x="520" y="1000" width="40" height="40" as="geometry"/>
                </mxCell>
                <mxCell id="87" value="" style="rounded=0;whiteSpace=wrap;html=1;strokeColor=#350505;fillColor=#350505;" parent="1" vertex="1">
                    <mxGeometry x="240" y="-120" width="40" height="40" as="geometry"/>
                </mxCell>
                <mxCell id="88" value="" style="rounded=0;whiteSpace=wrap;html=1;strokeColor=#350505;fillColor=#350505;" parent="1" vertex="1">
                    <mxGeometry x="280" y="-160" width="40" height="40" as="geometry"/>
                </mxCell>
                <mxCell id="89" value="" style="rounded=0;whiteSpace=wrap;html=1;strokeColor=#350505;fillColor=#350505;" parent="1" vertex="1">
                    <mxGeometry x="240" y="-80" width="40" height="40" as="geometry"/>
                </mxCell>
                <mxCell id="90" value="" style="rounded=0;whiteSpace=wrap;html=1;strokeColor=#350505;fillColor=#350505;" parent="1" vertex="1">
                    <mxGeometry x="240" y="-40" width="40" height="40" as="geometry"/>
                </mxCell>
                <mxCell id="91" value="" style="rounded=0;whiteSpace=wrap;html=1;strokeColor=#350505;fillColor=#350505;" parent="1" vertex="1">
                    <mxGeometry x="280" width="40" height="40" as="geometry"/>
                </mxCell>
                <mxCell id="92" value="" style="rounded=0;whiteSpace=wrap;html=1;strokeColor=#350505;fillColor=#350505;" parent="1" vertex="1">
                    <mxGeometry x="320" y="40" width="40" height="40" as="geometry"/>
                </mxCell>
                <mxCell id="93" value="" style="rounded=0;whiteSpace=wrap;html=1;strokeColor=#350505;fillColor=#350505;" parent="1" vertex="1">
                    <mxGeometry x="320" y="-200" width="40" height="40" as="geometry"/>
                </mxCell>
                <mxCell id="94" value="" style="rounded=0;whiteSpace=wrap;html=1;strokeColor=#350505;fillColor=#350505;" parent="1" vertex="1">
                    <mxGeometry x="360" y="-200" width="40" height="40" as="geometry"/>
                </mxCell>
                <mxCell id="95" value="" style="rounded=0;whiteSpace=wrap;html=1;strokeColor=#350505;fillColor=#350505;" parent="1" vertex="1">
                    <mxGeometry x="400" y="-200" width="40" height="40" as="geometry"/>
                </mxCell>
                <mxCell id="96" value="" style="rounded=0;whiteSpace=wrap;html=1;strokeColor=#350505;fillColor=#350505;" parent="1" vertex="1">
                    <mxGeometry x="440" y="-200" width="40" height="40" as="geometry"/>
                </mxCell>
                <mxCell id="97" value="" style="rounded=0;whiteSpace=wrap;html=1;strokeColor=#350505;fillColor=#350505;" parent="1" vertex="1">
                    <mxGeometry x="480" y="-200" width="40" height="40" as="geometry"/>
                </mxCell>
                <mxCell id="98" value="" style="rounded=0;whiteSpace=wrap;html=1;strokeColor=#350505;fillColor=#350505;" parent="1" vertex="1">
                    <mxGeometry x="520" y="-200" width="40" height="40" as="geometry"/>
                </mxCell>
                <mxCell id="99" value="" style="rounded=0;whiteSpace=wrap;html=1;strokeColor=#350505;fillColor=#350505;" parent="1" vertex="1">
                    <mxGeometry x="560" y="-200" width="40" height="40" as="geometry"/>
                </mxCell>
                <mxCell id="100" value="" style="rounded=0;whiteSpace=wrap;html=1;strokeColor=#350505;fillColor=#350505;" parent="1" vertex="1">
                    <mxGeometry x="600" y="-200" width="40" height="40" as="geometry"/>
                </mxCell>
                <mxCell id="106" value="" style="rounded=0;whiteSpace=wrap;html=1;strokeColor=#350505;fillColor=#350505;" parent="1" vertex="1">
                    <mxGeometry x="360" y="40" width="40" height="40" as="geometry"/>
                </mxCell>
                <mxCell id="107" value="" style="rounded=0;whiteSpace=wrap;html=1;strokeColor=#350505;fillColor=#350505;" parent="1" vertex="1">
                    <mxGeometry x="400" y="40" width="40" height="40" as="geometry"/>
                </mxCell>
                <mxCell id="108" value="" style="rounded=0;whiteSpace=wrap;html=1;strokeColor=#350505;fillColor=#350505;" parent="1" vertex="1">
                    <mxGeometry x="440" y="40" width="40" height="40" as="geometry"/>
                </mxCell>
                <mxCell id="109" value="" style="rounded=0;whiteSpace=wrap;html=1;strokeColor=#350505;fillColor=#350505;" parent="1" vertex="1">
                    <mxGeometry x="480" y="40" width="40" height="40" as="geometry"/>
                </mxCell>
                <mxCell id="110" value="" style="rounded=0;whiteSpace=wrap;html=1;strokeColor=#350505;fillColor=#350505;" parent="1" vertex="1">
                    <mxGeometry x="520" y="40" width="40" height="40" as="geometry"/>
                </mxCell>
                <mxCell id="111" value="" style="rounded=0;whiteSpace=wrap;html=1;strokeColor=#350505;fillColor=#350505;" parent="1" vertex="1">
                    <mxGeometry x="560" y="40" width="40" height="40" as="geometry"/>
                </mxCell>
                <mxCell id="112" value="" style="rounded=0;whiteSpace=wrap;html=1;strokeColor=#350505;fillColor=#350505;" parent="1" vertex="1">
                    <mxGeometry x="600" y="40" width="40" height="40" as="geometry"/>
                </mxCell>
                <mxCell id="113" value="" style="rounded=0;whiteSpace=wrap;html=1;strokeColor=#350505;fillColor=#350505;" parent="1" vertex="1">
                    <mxGeometry x="640" y="-160" width="40" height="40" as="geometry"/>
                </mxCell>
                <mxCell id="114" value="" style="rounded=0;whiteSpace=wrap;html=1;strokeColor=#350505;fillColor=#350505;" parent="1" vertex="1">
                    <mxGeometry x="640" y="-200" width="40" height="40" as="geometry"/>
                </mxCell>
                <mxCell id="115" value="" style="rounded=0;whiteSpace=wrap;html=1;strokeColor=#350505;fillColor=#350505;" parent="1" vertex="1">
                    <mxGeometry x="640" y="-80" width="40" height="40" as="geometry"/>
                </mxCell>
                <mxCell id="116" value="" style="rounded=0;whiteSpace=wrap;html=1;strokeColor=#350505;fillColor=#350505;" parent="1" vertex="1">
                    <mxGeometry x="640" y="-120" width="40" height="40" as="geometry"/>
                </mxCell>
                <mxCell id="117" value="" style="rounded=0;whiteSpace=wrap;html=1;strokeColor=#350505;fillColor=#350505;" parent="1" vertex="1">
                    <mxGeometry x="640" y="-40" width="40" height="40" as="geometry"/>
                </mxCell>
                <mxCell id="118" value="" style="rounded=0;whiteSpace=wrap;html=1;strokeColor=#350505;fillColor=#350505;" parent="1" vertex="1">
                    <mxGeometry x="640" y="40" width="40" height="40" as="geometry"/>
                </mxCell>
                <mxCell id="119" value="" style="rounded=0;whiteSpace=wrap;html=1;strokeColor=#350505;fillColor=#350505;" parent="1" vertex="1">
                    <mxGeometry x="640" width="40" height="40" as="geometry"/>
                </mxCell>
                <mxCell id="120" value="" style="rounded=0;whiteSpace=wrap;html=1;strokeColor=#350505;fillColor=#350505;" parent="1" vertex="1">
                    <mxGeometry x="680" y="-200" width="40" height="40" as="geometry"/>
                </mxCell>
                <mxCell id="121" value="" style="rounded=0;whiteSpace=wrap;html=1;strokeColor=#350505;fillColor=#350505;" parent="1" vertex="1">
                    <mxGeometry x="720" y="-200" width="40" height="40" as="geometry"/>
                </mxCell>
                <mxCell id="122" value="" style="rounded=0;whiteSpace=wrap;html=1;strokeColor=#350505;fillColor=#350505;" parent="1" vertex="1">
                    <mxGeometry x="760" y="-200" width="40" height="40" as="geometry"/>
                </mxCell>
                <mxCell id="123" value="" style="rounded=0;whiteSpace=wrap;html=1;strokeColor=#350505;fillColor=#350505;" parent="1" vertex="1">
                    <mxGeometry x="800" y="-200" width="40" height="40" as="geometry"/>
                </mxCell>
                <mxCell id="124" value="" style="rounded=0;whiteSpace=wrap;html=1;strokeColor=#350505;fillColor=#350505;" parent="1" vertex="1">
                    <mxGeometry x="840" y="-200" width="40" height="40" as="geometry"/>
                </mxCell>
                <mxCell id="125" value="" style="rounded=0;whiteSpace=wrap;html=1;strokeColor=#350505;fillColor=#350505;" parent="1" vertex="1">
                    <mxGeometry x="880" y="-200" width="40" height="40" as="geometry"/>
                </mxCell>
                <mxCell id="126" value="" style="rounded=0;whiteSpace=wrap;html=1;strokeColor=#350505;fillColor=#350505;" parent="1" vertex="1">
                    <mxGeometry x="920" y="-200" width="40" height="40" as="geometry"/>
                </mxCell>
                <mxCell id="127" value="" style="rounded=0;whiteSpace=wrap;html=1;strokeColor=#350505;fillColor=#350505;" parent="1" vertex="1">
                    <mxGeometry x="960" y="-200" width="40" height="40" as="geometry"/>
                </mxCell>
                <mxCell id="128" value="" style="rounded=0;whiteSpace=wrap;html=1;strokeColor=#350505;fillColor=#350505;" parent="1" vertex="1">
                    <mxGeometry x="680" y="40" width="40" height="40" as="geometry"/>
                </mxCell>
                <mxCell id="129" value="" style="rounded=0;whiteSpace=wrap;html=1;strokeColor=#350505;fillColor=#350505;" parent="1" vertex="1">
                    <mxGeometry x="720" y="40" width="40" height="40" as="geometry"/>
                </mxCell>
                <mxCell id="130" value="" style="rounded=0;whiteSpace=wrap;html=1;strokeColor=#350505;fillColor=#350505;" parent="1" vertex="1">
                    <mxGeometry x="760" y="40" width="40" height="40" as="geometry"/>
                </mxCell>
                <mxCell id="131" value="" style="rounded=0;whiteSpace=wrap;html=1;strokeColor=#350505;fillColor=#350505;" parent="1" vertex="1">
                    <mxGeometry x="800" y="40" width="40" height="40" as="geometry"/>
                </mxCell>
                <mxCell id="132" value="" style="rounded=0;whiteSpace=wrap;html=1;strokeColor=#350505;fillColor=#350505;" parent="1" vertex="1">
                    <mxGeometry x="840" y="40" width="40" height="40" as="geometry"/>
                </mxCell>
                <mxCell id="133" value="" style="rounded=0;whiteSpace=wrap;html=1;strokeColor=#350505;fillColor=#350505;" parent="1" vertex="1">
                    <mxGeometry x="880" y="40" width="40" height="40" as="geometry"/>
                </mxCell>
                <mxCell id="134" value="" style="rounded=0;whiteSpace=wrap;html=1;strokeColor=#350505;fillColor=#350505;" parent="1" vertex="1">
                    <mxGeometry x="920" y="40" width="40" height="40" as="geometry"/>
                </mxCell>
                <mxCell id="135" value="" style="rounded=0;whiteSpace=wrap;html=1;strokeColor=#350505;fillColor=#350505;" parent="1" vertex="1">
                    <mxGeometry x="960" y="40" width="40" height="40" as="geometry"/>
                </mxCell>
                <mxCell id="136" value="" style="rounded=0;whiteSpace=wrap;html=1;strokeColor=#350505;fillColor=#350505;" parent="1" vertex="1">
                    <mxGeometry x="1000" y="-200" width="40" height="40" as="geometry"/>
                </mxCell>
                <mxCell id="137" value="" style="rounded=0;whiteSpace=wrap;html=1;strokeColor=#350505;fillColor=#350505;" parent="1" vertex="1">
                    <mxGeometry x="1000" y="40" width="40" height="40" as="geometry"/>
                </mxCell>
                <mxCell id="159" value="" style="rounded=0;whiteSpace=wrap;html=1;strokeColor=#350505;fillColor=#350505;" parent="1" vertex="1">
                    <mxGeometry x="1040" y="-160" width="40" height="40" as="geometry"/>
                </mxCell>
                <mxCell id="160" value="" style="rounded=0;whiteSpace=wrap;html=1;strokeColor=#350505;fillColor=#350505;" parent="1" vertex="1">
                    <mxGeometry x="1040" y="-200" width="40" height="40" as="geometry"/>
                </mxCell>
                <mxCell id="161" value="" style="rounded=0;whiteSpace=wrap;html=1;strokeColor=#350505;fillColor=#350505;" parent="1" vertex="1">
                    <mxGeometry x="1040" y="-80" width="40" height="40" as="geometry"/>
                </mxCell>
                <mxCell id="162" value="" style="rounded=0;whiteSpace=wrap;html=1;strokeColor=#350505;fillColor=#350505;" parent="1" vertex="1">
                    <mxGeometry x="1040" y="-120" width="40" height="40" as="geometry"/>
                </mxCell>
                <mxCell id="163" value="" style="rounded=0;whiteSpace=wrap;html=1;strokeColor=#350505;fillColor=#350505;" parent="1" vertex="1">
                    <mxGeometry x="1040" y="-40" width="40" height="40" as="geometry"/>
                </mxCell>
                <mxCell id="164" value="" style="rounded=0;whiteSpace=wrap;html=1;strokeColor=#350505;fillColor=#350505;" parent="1" vertex="1">
                    <mxGeometry x="1040" y="40" width="40" height="40" as="geometry"/>
                </mxCell>
                <mxCell id="165" value="" style="rounded=0;whiteSpace=wrap;html=1;strokeColor=#350505;fillColor=#350505;" parent="1" vertex="1">
                    <mxGeometry x="1040" width="40" height="40" as="geometry"/>
                </mxCell>
                <mxCell id="166" value="" style="rounded=0;whiteSpace=wrap;html=1;strokeColor=#350505;fillColor=#350505;" parent="1" vertex="1">
                    <mxGeometry x="1080" y="-200" width="40" height="40" as="geometry"/>
                </mxCell>
                <mxCell id="167" value="" style="rounded=0;whiteSpace=wrap;html=1;strokeColor=#350505;fillColor=#350505;" parent="1" vertex="1">
                    <mxGeometry x="1120" y="-200" width="40" height="40" as="geometry"/>
                </mxCell>
                <mxCell id="168" value="" style="rounded=0;whiteSpace=wrap;html=1;strokeColor=#350505;fillColor=#350505;" parent="1" vertex="1">
                    <mxGeometry x="1160" y="-200" width="40" height="40" as="geometry"/>
                </mxCell>
                <mxCell id="169" value="" style="rounded=0;whiteSpace=wrap;html=1;strokeColor=#350505;fillColor=#350505;" parent="1" vertex="1">
                    <mxGeometry x="1200" y="-200" width="40" height="40" as="geometry"/>
                </mxCell>
                <mxCell id="170" value="" style="rounded=0;whiteSpace=wrap;html=1;strokeColor=#350505;fillColor=#350505;" parent="1" vertex="1">
                    <mxGeometry x="1240" y="-200" width="40" height="40" as="geometry"/>
                </mxCell>
                <mxCell id="171" value="" style="rounded=0;whiteSpace=wrap;html=1;strokeColor=#350505;fillColor=#350505;" parent="1" vertex="1">
                    <mxGeometry x="1280" y="-200" width="40" height="40" as="geometry"/>
                </mxCell>
                <mxCell id="172" value="" style="rounded=0;whiteSpace=wrap;html=1;strokeColor=#350505;fillColor=#350505;" parent="1" vertex="1">
                    <mxGeometry x="1320" y="-200" width="40" height="40" as="geometry"/>
                </mxCell>
                <mxCell id="173" value="" style="rounded=0;whiteSpace=wrap;html=1;strokeColor=#350505;fillColor=#350505;" parent="1" vertex="1">
                    <mxGeometry x="1360" y="-200" width="40" height="40" as="geometry"/>
                </mxCell>
                <mxCell id="174" value="" style="rounded=0;whiteSpace=wrap;html=1;strokeColor=#350505;fillColor=#350505;" parent="1" vertex="1">
                    <mxGeometry x="1080" y="40" width="40" height="40" as="geometry"/>
                </mxCell>
                <mxCell id="175" value="" style="rounded=0;whiteSpace=wrap;html=1;strokeColor=#350505;fillColor=#350505;" parent="1" vertex="1">
                    <mxGeometry x="1120" y="40" width="40" height="40" as="geometry"/>
                </mxCell>
                <mxCell id="176" value="" style="rounded=0;whiteSpace=wrap;html=1;strokeColor=#350505;fillColor=#350505;" parent="1" vertex="1">
                    <mxGeometry x="1160" y="40" width="40" height="40" as="geometry"/>
                </mxCell>
                <mxCell id="177" value="" style="rounded=0;whiteSpace=wrap;html=1;strokeColor=#350505;fillColor=#350505;" parent="1" vertex="1">
                    <mxGeometry x="1200" y="40" width="40" height="40" as="geometry"/>
                </mxCell>
                <mxCell id="178" value="" style="rounded=0;whiteSpace=wrap;html=1;strokeColor=#350505;fillColor=#350505;" parent="1" vertex="1">
                    <mxGeometry x="1240" y="40" width="40" height="40" as="geometry"/>
                </mxCell>
                <mxCell id="179" value="" style="rounded=0;whiteSpace=wrap;html=1;strokeColor=#350505;fillColor=#350505;" parent="1" vertex="1">
                    <mxGeometry x="1280" y="40" width="40" height="40" as="geometry"/>
                </mxCell>
                <mxCell id="180" value="" style="rounded=0;whiteSpace=wrap;html=1;strokeColor=#350505;fillColor=#350505;" parent="1" vertex="1">
                    <mxGeometry x="1320" y="40" width="40" height="40" as="geometry"/>
                </mxCell>
                <mxCell id="181" value="" style="rounded=0;whiteSpace=wrap;html=1;strokeColor=#350505;fillColor=#350505;" parent="1" vertex="1">
                    <mxGeometry x="1360" y="40" width="40" height="40" as="geometry"/>
                </mxCell>
                <mxCell id="182" value="" style="rounded=0;whiteSpace=wrap;html=1;strokeColor=#350505;fillColor=#350505;" parent="1" vertex="1">
                    <mxGeometry x="1400" y="-200" width="40" height="40" as="geometry"/>
                </mxCell>
                <mxCell id="183" value="" style="rounded=0;whiteSpace=wrap;html=1;strokeColor=#350505;fillColor=#350505;" parent="1" vertex="1">
                    <mxGeometry x="1400" y="40" width="40" height="40" as="geometry"/>
                </mxCell>
                <mxCell id="184" value="" style="rounded=0;whiteSpace=wrap;html=1;strokeColor=#350505;fillColor=#350505;" parent="1" vertex="1">
                    <mxGeometry x="1800" y="-120" width="40" height="40" as="geometry"/>
                </mxCell>
                <mxCell id="185" value="" style="rounded=0;whiteSpace=wrap;html=1;strokeColor=#350505;fillColor=#350505;" parent="1" vertex="1">
                    <mxGeometry x="1760" y="-160" width="40" height="40" as="geometry"/>
                </mxCell>
                <mxCell id="186" value="" style="rounded=0;whiteSpace=wrap;html=1;strokeColor=#350505;fillColor=#350505;" parent="1" vertex="1">
                    <mxGeometry x="1800" y="-80" width="40" height="40" as="geometry"/>
                </mxCell>
                <mxCell id="187" value="" style="rounded=0;whiteSpace=wrap;html=1;strokeColor=#350505;fillColor=#350505;" parent="1" vertex="1">
                    <mxGeometry x="1800" y="-40" width="40" height="40" as="geometry"/>
                </mxCell>
                <mxCell id="188" value="" style="rounded=0;whiteSpace=wrap;html=1;strokeColor=#350505;fillColor=#350505;" parent="1" vertex="1">
                    <mxGeometry x="1760" width="40" height="40" as="geometry"/>
                </mxCell>
                <mxCell id="189" value="" style="rounded=0;whiteSpace=wrap;html=1;strokeColor=#350505;fillColor=#350505;" parent="1" vertex="1">
                    <mxGeometry x="1440" y="-160" width="40" height="40" as="geometry"/>
                </mxCell>
                <mxCell id="190" value="" style="rounded=0;whiteSpace=wrap;html=1;strokeColor=#350505;fillColor=#350505;" parent="1" vertex="1">
                    <mxGeometry x="1440" y="-200" width="40" height="40" as="geometry"/>
                </mxCell>
                <mxCell id="191" value="" style="rounded=0;whiteSpace=wrap;html=1;strokeColor=#350505;fillColor=#350505;" parent="1" vertex="1">
                    <mxGeometry x="1440" y="-80" width="40" height="40" as="geometry"/>
                </mxCell>
                <mxCell id="192" value="" style="rounded=0;whiteSpace=wrap;html=1;strokeColor=#350505;fillColor=#350505;" parent="1" vertex="1">
                    <mxGeometry x="1440" y="-120" width="40" height="40" as="geometry"/>
                </mxCell>
                <mxCell id="193" value="" style="rounded=0;whiteSpace=wrap;html=1;strokeColor=#350505;fillColor=#350505;" parent="1" vertex="1">
                    <mxGeometry x="1440" y="-40" width="40" height="40" as="geometry"/>
                </mxCell>
                <mxCell id="194" value="" style="rounded=0;whiteSpace=wrap;html=1;strokeColor=#350505;fillColor=#350505;" parent="1" vertex="1">
                    <mxGeometry x="1440" y="40" width="40" height="40" as="geometry"/>
                </mxCell>
                <mxCell id="195" value="" style="rounded=0;whiteSpace=wrap;html=1;strokeColor=#350505;fillColor=#350505;" parent="1" vertex="1">
                    <mxGeometry x="1440" width="40" height="40" as="geometry"/>
                </mxCell>
                <mxCell id="196" value="" style="rounded=0;whiteSpace=wrap;html=1;strokeColor=#350505;fillColor=#350505;" parent="1" vertex="1">
                    <mxGeometry x="1480" y="-200" width="40" height="40" as="geometry"/>
                </mxCell>
                <mxCell id="197" value="" style="rounded=0;whiteSpace=wrap;html=1;strokeColor=#350505;fillColor=#350505;" parent="1" vertex="1">
                    <mxGeometry x="1520" y="-200" width="40" height="40" as="geometry"/>
                </mxCell>
                <mxCell id="198" value="" style="rounded=0;whiteSpace=wrap;html=1;strokeColor=#350505;fillColor=#350505;" parent="1" vertex="1">
                    <mxGeometry x="1560" y="-200" width="40" height="40" as="geometry"/>
                </mxCell>
                <mxCell id="199" value="" style="rounded=0;whiteSpace=wrap;html=1;strokeColor=#350505;fillColor=#350505;" parent="1" vertex="1">
                    <mxGeometry x="1600" y="-200" width="40" height="40" as="geometry"/>
                </mxCell>
                <mxCell id="200" value="" style="rounded=0;whiteSpace=wrap;html=1;strokeColor=#350505;fillColor=#350505;" parent="1" vertex="1">
                    <mxGeometry x="1640" y="-200" width="40" height="40" as="geometry"/>
                </mxCell>
                <mxCell id="201" value="" style="rounded=0;whiteSpace=wrap;html=1;strokeColor=#350505;fillColor=#350505;" parent="1" vertex="1">
                    <mxGeometry x="1680" y="-200" width="40" height="40" as="geometry"/>
                </mxCell>
                <mxCell id="202" value="" style="rounded=0;whiteSpace=wrap;html=1;strokeColor=#350505;fillColor=#350505;" parent="1" vertex="1">
                    <mxGeometry x="1720" y="-200" width="40" height="40" as="geometry"/>
                </mxCell>
                <mxCell id="203" value="" style="rounded=0;whiteSpace=wrap;html=1;strokeColor=#350505;fillColor=#350505;" parent="1" vertex="1">
                    <mxGeometry x="1480" y="40" width="40" height="40" as="geometry"/>
                </mxCell>
                <mxCell id="204" value="" style="rounded=0;whiteSpace=wrap;html=1;strokeColor=#350505;fillColor=#350505;" parent="1" vertex="1">
                    <mxGeometry x="1520" y="40" width="40" height="40" as="geometry"/>
                </mxCell>
                <mxCell id="205" value="" style="rounded=0;whiteSpace=wrap;html=1;strokeColor=#350505;fillColor=#350505;" parent="1" vertex="1">
                    <mxGeometry x="1560" y="40" width="40" height="40" as="geometry"/>
                </mxCell>
                <mxCell id="206" value="" style="rounded=0;whiteSpace=wrap;html=1;strokeColor=#350505;fillColor=#350505;" parent="1" vertex="1">
                    <mxGeometry x="1600" y="40" width="40" height="40" as="geometry"/>
                </mxCell>
                <mxCell id="207" value="" style="rounded=0;whiteSpace=wrap;html=1;strokeColor=#350505;fillColor=#350505;" parent="1" vertex="1">
                    <mxGeometry x="1640" y="40" width="40" height="40" as="geometry"/>
                </mxCell>
                <mxCell id="208" value="" style="rounded=0;whiteSpace=wrap;html=1;strokeColor=#350505;fillColor=#350505;" parent="1" vertex="1">
                    <mxGeometry x="1680" y="40" width="40" height="40" as="geometry"/>
                </mxCell>
                <mxCell id="209" value="" style="rounded=0;whiteSpace=wrap;html=1;strokeColor=#350505;fillColor=#350505;" parent="1" vertex="1">
                    <mxGeometry x="1720" y="40" width="40" height="40" as="geometry"/>
                </mxCell>
                <mxCell id="303" value="" style="rounded=0;whiteSpace=wrap;html=1;strokeColor=#350505;fillColor=#350505;" parent="1" vertex="1">
                    <mxGeometry x="1120" y="480" width="40" height="40" as="geometry"/>
                </mxCell>
                <mxCell id="304" value="" style="rounded=0;whiteSpace=wrap;html=1;strokeColor=#350505;fillColor=#350505;" parent="1" vertex="1">
                    <mxGeometry x="1120" y="440" width="40" height="40" as="geometry"/>
                </mxCell>
                <mxCell id="305" value="" style="rounded=0;whiteSpace=wrap;html=1;strokeColor=#350505;fillColor=#350505;" parent="1" vertex="1">
                    <mxGeometry x="1120" y="560" width="40" height="40" as="geometry"/>
                </mxCell>
                <mxCell id="306" value="" style="rounded=0;whiteSpace=wrap;html=1;strokeColor=#350505;fillColor=#350505;" parent="1" vertex="1">
                    <mxGeometry x="1120" y="520" width="40" height="40" as="geometry"/>
                </mxCell>
                <mxCell id="307" value="" style="rounded=0;whiteSpace=wrap;html=1;strokeColor=#350505;fillColor=#350505;" parent="1" vertex="1">
                    <mxGeometry x="1120" y="600" width="40" height="40" as="geometry"/>
                </mxCell>
                <mxCell id="308" value="" style="rounded=0;whiteSpace=wrap;html=1;strokeColor=#350505;fillColor=#350505;" parent="1" vertex="1">
                    <mxGeometry x="1120" y="680" width="40" height="40" as="geometry"/>
                </mxCell>
                <mxCell id="309" value="" style="rounded=0;whiteSpace=wrap;html=1;strokeColor=#350505;fillColor=#350505;" parent="1" vertex="1">
                    <mxGeometry x="1120" y="640" width="40" height="40" as="geometry"/>
                </mxCell>
                <mxCell id="310" value="" style="rounded=0;whiteSpace=wrap;html=1;strokeColor=#350505;fillColor=#350505;" parent="1" vertex="1">
                    <mxGeometry x="1160" y="440" width="40" height="40" as="geometry"/>
                </mxCell>
                <mxCell id="311" value="" style="rounded=0;whiteSpace=wrap;html=1;strokeColor=#350505;fillColor=#350505;" parent="1" vertex="1">
                    <mxGeometry x="1200" y="440" width="40" height="40" as="geometry"/>
                </mxCell>
                <mxCell id="312" value="" style="rounded=0;whiteSpace=wrap;html=1;strokeColor=#350505;fillColor=#350505;" parent="1" vertex="1">
                    <mxGeometry x="1240" y="440" width="40" height="40" as="geometry"/>
                </mxCell>
                <mxCell id="313" value="" style="rounded=0;whiteSpace=wrap;html=1;strokeColor=#350505;fillColor=#350505;" parent="1" vertex="1">
                    <mxGeometry x="1280" y="440" width="40" height="40" as="geometry"/>
                </mxCell>
                <mxCell id="314" value="" style="rounded=0;whiteSpace=wrap;html=1;strokeColor=#350505;fillColor=#350505;" parent="1" vertex="1">
                    <mxGeometry x="1320" y="440" width="40" height="40" as="geometry"/>
                </mxCell>
                <mxCell id="315" value="" style="rounded=0;whiteSpace=wrap;html=1;strokeColor=#350505;fillColor=#350505;" parent="1" vertex="1">
                    <mxGeometry x="1360" y="440" width="40" height="40" as="geometry"/>
                </mxCell>
                <mxCell id="316" value="" style="rounded=0;whiteSpace=wrap;html=1;strokeColor=#350505;fillColor=#350505;" parent="1" vertex="1">
                    <mxGeometry x="1400" y="440" width="40" height="40" as="geometry"/>
                </mxCell>
                <mxCell id="317" value="" style="rounded=0;whiteSpace=wrap;html=1;strokeColor=#350505;fillColor=#350505;" parent="1" vertex="1">
                    <mxGeometry x="1440" y="440" width="40" height="40" as="geometry"/>
                </mxCell>
                <mxCell id="318" value="" style="rounded=0;whiteSpace=wrap;html=1;strokeColor=#350505;fillColor=#350505;" parent="1" vertex="1">
                    <mxGeometry x="1160" y="680" width="40" height="40" as="geometry"/>
                </mxCell>
                <mxCell id="319" value="" style="rounded=0;whiteSpace=wrap;html=1;strokeColor=#350505;fillColor=#350505;" parent="1" vertex="1">
                    <mxGeometry x="1200" y="680" width="40" height="40" as="geometry"/>
                </mxCell>
                <mxCell id="320" value="" style="rounded=0;whiteSpace=wrap;html=1;strokeColor=#350505;fillColor=#350505;" parent="1" vertex="1">
                    <mxGeometry x="1240" y="680" width="40" height="40" as="geometry"/>
                </mxCell>
                <mxCell id="321" value="" style="rounded=0;whiteSpace=wrap;html=1;strokeColor=#350505;fillColor=#350505;" parent="1" vertex="1">
                    <mxGeometry x="1280" y="680" width="40" height="40" as="geometry"/>
                </mxCell>
                <mxCell id="322" value="" style="rounded=0;whiteSpace=wrap;html=1;strokeColor=#350505;fillColor=#350505;" parent="1" vertex="1">
                    <mxGeometry x="1320" y="680" width="40" height="40" as="geometry"/>
                </mxCell>
                <mxCell id="323" value="" style="rounded=0;whiteSpace=wrap;html=1;strokeColor=#350505;fillColor=#350505;" parent="1" vertex="1">
                    <mxGeometry x="1360" y="680" width="40" height="40" as="geometry"/>
                </mxCell>
                <mxCell id="324" value="" style="rounded=0;whiteSpace=wrap;html=1;strokeColor=#350505;fillColor=#350505;" parent="1" vertex="1">
                    <mxGeometry x="1400" y="680" width="40" height="40" as="geometry"/>
                </mxCell>
                <mxCell id="325" value="" style="rounded=0;whiteSpace=wrap;html=1;strokeColor=#350505;fillColor=#350505;" parent="1" vertex="1">
                    <mxGeometry x="1440" y="680" width="40" height="40" as="geometry"/>
                </mxCell>
                <mxCell id="326" value="" style="rounded=0;whiteSpace=wrap;html=1;strokeColor=#350505;fillColor=#350505;" parent="1" vertex="1">
                    <mxGeometry x="1480" y="440" width="40" height="40" as="geometry"/>
                </mxCell>
                <mxCell id="327" value="" style="rounded=0;whiteSpace=wrap;html=1;strokeColor=#350505;fillColor=#350505;" parent="1" vertex="1">
                    <mxGeometry x="1480" y="680" width="40" height="40" as="geometry"/>
                </mxCell>
                <mxCell id="328" value="" style="rounded=0;whiteSpace=wrap;html=1;strokeColor=#350505;fillColor=#350505;" parent="1" vertex="1">
                    <mxGeometry x="680" y="200" width="40" height="40" as="geometry"/>
                </mxCell>
                <mxCell id="329" value="" style="rounded=0;whiteSpace=wrap;html=1;strokeColor=#350505;fillColor=#350505;" parent="1" vertex="1">
                    <mxGeometry x="720" y="160" width="40" height="40" as="geometry"/>
                </mxCell>
                <mxCell id="330" value="" style="rounded=0;whiteSpace=wrap;html=1;strokeColor=#350505;fillColor=#350505;" parent="1" vertex="1">
                    <mxGeometry x="680" y="240" width="40" height="40" as="geometry"/>
                </mxCell>
                <mxCell id="331" value="" style="rounded=0;whiteSpace=wrap;html=1;strokeColor=#350505;fillColor=#350505;" parent="1" vertex="1">
                    <mxGeometry x="680" y="280" width="40" height="40" as="geometry"/>
                </mxCell>
                <mxCell id="332" value="" style="rounded=0;whiteSpace=wrap;html=1;strokeColor=#350505;fillColor=#350505;" parent="1" vertex="1">
                    <mxGeometry x="720" y="320" width="40" height="40" as="geometry"/>
                </mxCell>
                <mxCell id="333" value="" style="rounded=0;whiteSpace=wrap;html=1;strokeColor=#350505;fillColor=#350505;" parent="1" vertex="1">
                    <mxGeometry x="760" y="360" width="40" height="40" as="geometry"/>
                </mxCell>
                <mxCell id="334" value="" style="rounded=0;whiteSpace=wrap;html=1;strokeColor=#350505;fillColor=#350505;" parent="1" vertex="1">
                    <mxGeometry x="760" y="120" width="40" height="40" as="geometry"/>
                </mxCell>
                <mxCell id="335" value="" style="rounded=0;whiteSpace=wrap;html=1;strokeColor=#350505;fillColor=#350505;" parent="1" vertex="1">
                    <mxGeometry x="800" y="120" width="40" height="40" as="geometry"/>
                </mxCell>
                <mxCell id="336" value="" style="rounded=0;whiteSpace=wrap;html=1;strokeColor=#350505;fillColor=#350505;" parent="1" vertex="1">
                    <mxGeometry x="840" y="120" width="40" height="40" as="geometry"/>
                </mxCell>
                <mxCell id="337" value="" style="rounded=0;whiteSpace=wrap;html=1;strokeColor=#350505;fillColor=#350505;" parent="1" vertex="1">
                    <mxGeometry x="880" y="120" width="40" height="40" as="geometry"/>
                </mxCell>
                <mxCell id="338" value="" style="rounded=0;whiteSpace=wrap;html=1;strokeColor=#350505;fillColor=#350505;" parent="1" vertex="1">
                    <mxGeometry x="920" y="120" width="40" height="40" as="geometry"/>
                </mxCell>
                <mxCell id="339" value="" style="rounded=0;whiteSpace=wrap;html=1;strokeColor=#350505;fillColor=#350505;" parent="1" vertex="1">
                    <mxGeometry x="960" y="120" width="40" height="40" as="geometry"/>
                </mxCell>
                <mxCell id="340" value="" style="rounded=0;whiteSpace=wrap;html=1;strokeColor=#350505;fillColor=#350505;" parent="1" vertex="1">
                    <mxGeometry x="1000" y="120" width="40" height="40" as="geometry"/>
                </mxCell>
                <mxCell id="341" value="" style="rounded=0;whiteSpace=wrap;html=1;strokeColor=#350505;fillColor=#350505;" parent="1" vertex="1">
                    <mxGeometry x="1040" y="120" width="40" height="40" as="geometry"/>
                </mxCell>
                <mxCell id="342" value="" style="rounded=0;whiteSpace=wrap;html=1;strokeColor=#350505;fillColor=#350505;" parent="1" vertex="1">
                    <mxGeometry x="800" y="360" width="40" height="40" as="geometry"/>
                </mxCell>
                <mxCell id="343" value="" style="rounded=0;whiteSpace=wrap;html=1;strokeColor=#350505;fillColor=#350505;" parent="1" vertex="1">
                    <mxGeometry x="840" y="360" width="40" height="40" as="geometry"/>
                </mxCell>
                <mxCell id="344" value="" style="rounded=0;whiteSpace=wrap;html=1;strokeColor=#350505;fillColor=#350505;" parent="1" vertex="1">
                    <mxGeometry x="880" y="360" width="40" height="40" as="geometry"/>
                </mxCell>
                <mxCell id="345" value="" style="rounded=0;whiteSpace=wrap;html=1;strokeColor=#350505;fillColor=#350505;" parent="1" vertex="1">
                    <mxGeometry x="920" y="360" width="40" height="40" as="geometry"/>
                </mxCell>
                <mxCell id="346" value="" style="rounded=0;whiteSpace=wrap;html=1;strokeColor=#350505;fillColor=#350505;" parent="1" vertex="1">
                    <mxGeometry x="960" y="360" width="40" height="40" as="geometry"/>
                </mxCell>
                <mxCell id="347" value="" style="rounded=0;whiteSpace=wrap;html=1;strokeColor=#350505;fillColor=#350505;" parent="1" vertex="1">
                    <mxGeometry x="1000" y="360" width="40" height="40" as="geometry"/>
                </mxCell>
                <mxCell id="348" value="" style="rounded=0;whiteSpace=wrap;html=1;strokeColor=#350505;fillColor=#350505;" parent="1" vertex="1">
                    <mxGeometry x="1040" y="360" width="40" height="40" as="geometry"/>
                </mxCell>
                <mxCell id="349" value="" style="rounded=0;whiteSpace=wrap;html=1;strokeColor=#760000;fillColor=#760000;" parent="1" vertex="1">
                    <mxGeometry x="760" y="320" width="40" height="40" as="geometry"/>
                </mxCell>
                <mxCell id="350" value="" style="rounded=0;whiteSpace=wrap;html=1;strokeColor=#760000;fillColor=#760000;" parent="1" vertex="1">
                    <mxGeometry x="800" y="320" width="40" height="40" as="geometry"/>
                </mxCell>
                <mxCell id="351" value="" style="rounded=0;whiteSpace=wrap;html=1;strokeColor=#760000;fillColor=#760000;" parent="1" vertex="1">
                    <mxGeometry x="840" y="320" width="40" height="40" as="geometry"/>
                </mxCell>
                <mxCell id="352" value="" style="rounded=0;whiteSpace=wrap;html=1;strokeColor=#760000;fillColor=#760000;" parent="1" vertex="1">
                    <mxGeometry x="880" y="320" width="40" height="40" as="geometry"/>
                </mxCell>
                <mxCell id="353" value="" style="rounded=0;whiteSpace=wrap;html=1;strokeColor=#760000;fillColor=#760000;" parent="1" vertex="1">
                    <mxGeometry x="920" y="320" width="40" height="40" as="geometry"/>
                </mxCell>
                <mxCell id="354" value="" style="rounded=0;whiteSpace=wrap;html=1;strokeColor=#760000;fillColor=#760000;" parent="1" vertex="1">
                    <mxGeometry x="960" y="320" width="40" height="40" as="geometry"/>
                </mxCell>
                <mxCell id="355" value="" style="rounded=0;whiteSpace=wrap;html=1;strokeColor=#760000;fillColor=#760000;" parent="1" vertex="1">
                    <mxGeometry x="1000" y="320" width="40" height="40" as="geometry"/>
                </mxCell>
                <mxCell id="356" value="" style="rounded=0;whiteSpace=wrap;html=1;strokeColor=#760000;fillColor=#760000;" parent="1" vertex="1">
                    <mxGeometry x="1040" y="320" width="40" height="40" as="geometry"/>
                </mxCell>
                <mxCell id="357" value="" style="rounded=0;whiteSpace=wrap;html=1;strokeColor=#B30000;fillColor=#B30000;" parent="1" vertex="1">
                    <mxGeometry x="760" y="280" width="40" height="40" as="geometry"/>
                </mxCell>
                <mxCell id="358" value="" style="rounded=0;whiteSpace=wrap;html=1;strokeColor=#B30000;fillColor=#B30000;" parent="1" vertex="1">
                    <mxGeometry x="800" y="280" width="40" height="40" as="geometry"/>
                </mxCell>
                <mxCell id="359" value="" style="rounded=0;whiteSpace=wrap;html=1;strokeColor=#B30000;fillColor=#B30000;" parent="1" vertex="1">
                    <mxGeometry x="840" y="280" width="40" height="40" as="geometry"/>
                </mxCell>
                <mxCell id="360" value="" style="rounded=0;whiteSpace=wrap;html=1;strokeColor=#B30000;fillColor=#B30000;" parent="1" vertex="1">
                    <mxGeometry x="880" y="280" width="40" height="40" as="geometry"/>
                </mxCell>
                <mxCell id="361" value="" style="rounded=0;whiteSpace=wrap;html=1;strokeColor=#B30000;fillColor=#B30000;" parent="1" vertex="1">
                    <mxGeometry x="920" y="280" width="40" height="40" as="geometry"/>
                </mxCell>
                <mxCell id="362" value="" style="rounded=0;whiteSpace=wrap;html=1;strokeColor=#B30000;fillColor=#B30000;" parent="1" vertex="1">
                    <mxGeometry x="960" y="280" width="40" height="40" as="geometry"/>
                </mxCell>
                <mxCell id="363" value="" style="rounded=0;whiteSpace=wrap;html=1;strokeColor=#B30000;fillColor=#B30000;" parent="1" vertex="1">
                    <mxGeometry x="1000" y="280" width="40" height="40" as="geometry"/>
                </mxCell>
                <mxCell id="364" value="" style="rounded=0;whiteSpace=wrap;html=1;strokeColor=#B30000;fillColor=#B30000;" parent="1" vertex="1">
                    <mxGeometry x="1040" y="280" width="40" height="40" as="geometry"/>
                </mxCell>
                <mxCell id="365" value="" style="rounded=0;whiteSpace=wrap;html=1;strokeColor=#B30000;fillColor=#B30000;" parent="1" vertex="1">
                    <mxGeometry x="760" y="240" width="40" height="40" as="geometry"/>
                </mxCell>
                <mxCell id="366" value="" style="rounded=0;whiteSpace=wrap;html=1;strokeColor=#B30000;fillColor=#B30000;" parent="1" vertex="1">
                    <mxGeometry x="800" y="240" width="40" height="40" as="geometry"/>
                </mxCell>
                <mxCell id="367" value="" style="rounded=0;whiteSpace=wrap;html=1;strokeColor=#B30000;fillColor=#B30000;" parent="1" vertex="1">
                    <mxGeometry x="840" y="240" width="40" height="40" as="geometry"/>
                </mxCell>
                <mxCell id="368" value="" style="rounded=0;whiteSpace=wrap;html=1;strokeColor=#B30000;fillColor=#B30000;" parent="1" vertex="1">
                    <mxGeometry x="880" y="240" width="40" height="40" as="geometry"/>
                </mxCell>
                <mxCell id="369" value="" style="rounded=0;whiteSpace=wrap;html=1;strokeColor=#B30000;fillColor=#B30000;" parent="1" vertex="1">
                    <mxGeometry x="920" y="240" width="40" height="40" as="geometry"/>
                </mxCell>
                <mxCell id="370" value="" style="rounded=0;whiteSpace=wrap;html=1;strokeColor=#B30000;fillColor=#B30000;" parent="1" vertex="1">
                    <mxGeometry x="960" y="240" width="40" height="40" as="geometry"/>
                </mxCell>
                <mxCell id="371" value="" style="rounded=0;whiteSpace=wrap;html=1;strokeColor=#B30000;fillColor=#B30000;" parent="1" vertex="1">
                    <mxGeometry x="1000" y="240" width="40" height="40" as="geometry"/>
                </mxCell>
                <mxCell id="372" value="" style="rounded=0;whiteSpace=wrap;html=1;strokeColor=#B30000;fillColor=#B30000;" parent="1" vertex="1">
                    <mxGeometry x="1040" y="240" width="40" height="40" as="geometry"/>
                </mxCell>
                <mxCell id="373" value="" style="rounded=0;whiteSpace=wrap;html=1;strokeColor=#B30000;fillColor=#B30000;" parent="1" vertex="1">
                    <mxGeometry x="760" y="200" width="40" height="40" as="geometry"/>
                </mxCell>
                <mxCell id="374" value="" style="rounded=0;whiteSpace=wrap;html=1;strokeColor=#E8AA96;fillColor=#E8AA96;" parent="1" vertex="1">
                    <mxGeometry x="800" y="200" width="40" height="40" as="geometry"/>
                </mxCell>
                <mxCell id="375" value="" style="rounded=0;whiteSpace=wrap;html=1;strokeColor=#E8AA96;fillColor=#E8AA96;" parent="1" vertex="1">
                    <mxGeometry x="840" y="200" width="40" height="40" as="geometry"/>
                </mxCell>
                <mxCell id="376" value="" style="rounded=0;whiteSpace=wrap;html=1;strokeColor=#E8AA96;fillColor=#E8AA96;" parent="1" vertex="1">
                    <mxGeometry x="880" y="200" width="40" height="40" as="geometry"/>
                </mxCell>
                <mxCell id="377" value="" style="rounded=0;whiteSpace=wrap;html=1;strokeColor=#E8AA96;fillColor=#E8AA96;" parent="1" vertex="1">
                    <mxGeometry x="920" y="200" width="40" height="40" as="geometry"/>
                </mxCell>
                <mxCell id="378" value="" style="rounded=0;whiteSpace=wrap;html=1;strokeColor=#E8AA96;fillColor=#E8AA96;" parent="1" vertex="1">
                    <mxGeometry x="960" y="200" width="40" height="40" as="geometry"/>
                </mxCell>
                <mxCell id="379" value="" style="rounded=0;whiteSpace=wrap;html=1;strokeColor=#E8AA96;fillColor=#E8AA96;" parent="1" vertex="1">
                    <mxGeometry x="1000" y="200" width="40" height="40" as="geometry"/>
                </mxCell>
                <mxCell id="380" value="" style="rounded=0;whiteSpace=wrap;html=1;strokeColor=#E8AA96;fillColor=#E8AA96;" parent="1" vertex="1">
                    <mxGeometry x="1040" y="200" width="40" height="40" as="geometry"/>
                </mxCell>
                <mxCell id="381" value="" style="rounded=0;whiteSpace=wrap;html=1;strokeColor=#B30000;fillColor=#B30000;" parent="1" vertex="1">
                    <mxGeometry x="760" y="160" width="40" height="40" as="geometry"/>
                </mxCell>
                <mxCell id="382" value="" style="rounded=0;whiteSpace=wrap;html=1;strokeColor=#B30000;fillColor=#B30000;" parent="1" vertex="1">
                    <mxGeometry x="800" y="160" width="40" height="40" as="geometry"/>
                </mxCell>
                <mxCell id="383" value="" style="rounded=0;whiteSpace=wrap;html=1;strokeColor=#B30000;fillColor=#B30000;" parent="1" vertex="1">
                    <mxGeometry x="840" y="160" width="40" height="40" as="geometry"/>
                </mxCell>
                <mxCell id="384" value="" style="rounded=0;whiteSpace=wrap;html=1;strokeColor=#B30000;fillColor=#B30000;" parent="1" vertex="1">
                    <mxGeometry x="880" y="160" width="40" height="40" as="geometry"/>
                </mxCell>
                <mxCell id="385" value="" style="rounded=0;whiteSpace=wrap;html=1;strokeColor=#B30000;fillColor=#B30000;" parent="1" vertex="1">
                    <mxGeometry x="920" y="160" width="40" height="40" as="geometry"/>
                </mxCell>
                <mxCell id="386" value="" style="rounded=0;whiteSpace=wrap;html=1;strokeColor=#B30000;fillColor=#B30000;" parent="1" vertex="1">
                    <mxGeometry x="960" y="160" width="40" height="40" as="geometry"/>
                </mxCell>
                <mxCell id="387" value="" style="rounded=0;whiteSpace=wrap;html=1;strokeColor=#B30000;fillColor=#B30000;" parent="1" vertex="1">
                    <mxGeometry x="1000" y="160" width="40" height="40" as="geometry"/>
                </mxCell>
                <mxCell id="388" value="" style="rounded=0;whiteSpace=wrap;html=1;strokeColor=#B30000;fillColor=#B30000;" parent="1" vertex="1">
                    <mxGeometry x="1040" y="160" width="40" height="40" as="geometry"/>
                </mxCell>
                <mxCell id="389" value="" style="rounded=0;whiteSpace=wrap;html=1;strokeColor=#B30000;fillColor=#B30000;" parent="1" vertex="1">
                    <mxGeometry x="720" y="200" width="40" height="40" as="geometry"/>
                </mxCell>
                <mxCell id="390" value="" style="rounded=0;whiteSpace=wrap;html=1;strokeColor=#B30000;fillColor=#B30000;" parent="1" vertex="1">
                    <mxGeometry x="720" y="240" width="40" height="40" as="geometry"/>
                </mxCell>
                <mxCell id="391" value="" style="rounded=0;whiteSpace=wrap;html=1;strokeColor=#760000;fillColor=#760000;" parent="1" vertex="1">
                    <mxGeometry x="720" y="280" width="40" height="40" as="geometry"/>
                </mxCell>
                <mxCell id="392" value="" style="rounded=0;whiteSpace=wrap;html=1;strokeColor=#350505;fillColor=#350505;" parent="1" vertex="1">
                    <mxGeometry x="680" y="480" width="40" height="40" as="geometry"/>
                </mxCell>
                <mxCell id="393" value="" style="rounded=0;whiteSpace=wrap;html=1;strokeColor=#350505;fillColor=#350505;" parent="1" vertex="1">
                    <mxGeometry x="680" y="440" width="40" height="40" as="geometry"/>
                </mxCell>
                <mxCell id="394" value="" style="rounded=0;whiteSpace=wrap;html=1;strokeColor=#350505;fillColor=#350505;" parent="1" vertex="1">
                    <mxGeometry x="680" y="560" width="40" height="40" as="geometry"/>
                </mxCell>
                <mxCell id="395" value="" style="rounded=0;whiteSpace=wrap;html=1;strokeColor=#350505;fillColor=#350505;" parent="1" vertex="1">
                    <mxGeometry x="680" y="520" width="40" height="40" as="geometry"/>
                </mxCell>
                <mxCell id="396" value="" style="rounded=0;whiteSpace=wrap;html=1;strokeColor=#350505;fillColor=#350505;" parent="1" vertex="1">
                    <mxGeometry x="680" y="600" width="40" height="40" as="geometry"/>
                </mxCell>
                <mxCell id="397" value="" style="rounded=0;whiteSpace=wrap;html=1;strokeColor=#350505;fillColor=#350505;" parent="1" vertex="1">
                    <mxGeometry x="680" y="680" width="40" height="40" as="geometry"/>
                </mxCell>
                <mxCell id="398" value="" style="rounded=0;whiteSpace=wrap;html=1;strokeColor=#350505;fillColor=#350505;" parent="1" vertex="1">
                    <mxGeometry x="680" y="640" width="40" height="40" as="geometry"/>
                </mxCell>
                <mxCell id="399" value="" style="rounded=0;whiteSpace=wrap;html=1;strokeColor=#350505;fillColor=#350505;" parent="1" vertex="1">
                    <mxGeometry x="720" y="440" width="40" height="40" as="geometry"/>
                </mxCell>
                <mxCell id="400" value="" style="rounded=0;whiteSpace=wrap;html=1;strokeColor=#350505;fillColor=#350505;" parent="1" vertex="1">
                    <mxGeometry x="760" y="440" width="40" height="40" as="geometry"/>
                </mxCell>
                <mxCell id="401" value="" style="rounded=0;whiteSpace=wrap;html=1;strokeColor=#350505;fillColor=#350505;" parent="1" vertex="1">
                    <mxGeometry x="800" y="440" width="40" height="40" as="geometry"/>
                </mxCell>
                <mxCell id="402" value="" style="rounded=0;whiteSpace=wrap;html=1;strokeColor=#350505;fillColor=#350505;" parent="1" vertex="1">
                    <mxGeometry x="840" y="440" width="40" height="40" as="geometry"/>
                </mxCell>
                <mxCell id="403" value="" style="rounded=0;whiteSpace=wrap;html=1;strokeColor=#350505;fillColor=#350505;" parent="1" vertex="1">
                    <mxGeometry x="880" y="440" width="40" height="40" as="geometry"/>
                </mxCell>
                <mxCell id="404" value="" style="rounded=0;whiteSpace=wrap;html=1;strokeColor=#350505;fillColor=#350505;" parent="1" vertex="1">
                    <mxGeometry x="920" y="440" width="40" height="40" as="geometry"/>
                </mxCell>
                <mxCell id="405" value="" style="rounded=0;whiteSpace=wrap;html=1;strokeColor=#350505;fillColor=#350505;" parent="1" vertex="1">
                    <mxGeometry x="960" y="440" width="40" height="40" as="geometry"/>
                </mxCell>
                <mxCell id="406" value="" style="rounded=0;whiteSpace=wrap;html=1;strokeColor=#350505;fillColor=#350505;" parent="1" vertex="1">
                    <mxGeometry x="1000" y="440" width="40" height="40" as="geometry"/>
                </mxCell>
                <mxCell id="407" value="" style="rounded=0;whiteSpace=wrap;html=1;strokeColor=#350505;fillColor=#350505;" parent="1" vertex="1">
                    <mxGeometry x="720" y="680" width="40" height="40" as="geometry"/>
                </mxCell>
                <mxCell id="408" value="" style="rounded=0;whiteSpace=wrap;html=1;strokeColor=#350505;fillColor=#350505;" parent="1" vertex="1">
                    <mxGeometry x="760" y="680" width="40" height="40" as="geometry"/>
                </mxCell>
                <mxCell id="409" value="" style="rounded=0;whiteSpace=wrap;html=1;strokeColor=#350505;fillColor=#350505;" parent="1" vertex="1">
                    <mxGeometry x="800" y="680" width="40" height="40" as="geometry"/>
                </mxCell>
                <mxCell id="410" value="" style="rounded=0;whiteSpace=wrap;html=1;strokeColor=#350505;fillColor=#350505;" parent="1" vertex="1">
                    <mxGeometry x="840" y="680" width="40" height="40" as="geometry"/>
                </mxCell>
                <mxCell id="411" value="" style="rounded=0;whiteSpace=wrap;html=1;strokeColor=#350505;fillColor=#350505;" parent="1" vertex="1">
                    <mxGeometry x="880" y="680" width="40" height="40" as="geometry"/>
                </mxCell>
                <mxCell id="412" value="" style="rounded=0;whiteSpace=wrap;html=1;strokeColor=#350505;fillColor=#350505;" parent="1" vertex="1">
                    <mxGeometry x="920" y="680" width="40" height="40" as="geometry"/>
                </mxCell>
                <mxCell id="413" value="" style="rounded=0;whiteSpace=wrap;html=1;strokeColor=#350505;fillColor=#350505;" parent="1" vertex="1">
                    <mxGeometry x="960" y="680" width="40" height="40" as="geometry"/>
                </mxCell>
                <mxCell id="414" value="" style="rounded=0;whiteSpace=wrap;html=1;strokeColor=#350505;fillColor=#350505;" parent="1" vertex="1">
                    <mxGeometry x="1000" y="680" width="40" height="40" as="geometry"/>
                </mxCell>
                <mxCell id="415" value="" style="rounded=0;whiteSpace=wrap;html=1;strokeColor=#350505;fillColor=#350505;" parent="1" vertex="1">
                    <mxGeometry x="1040" y="440" width="40" height="40" as="geometry"/>
                </mxCell>
                <mxCell id="416" value="" style="rounded=0;whiteSpace=wrap;html=1;strokeColor=#350505;fillColor=#350505;" parent="1" vertex="1">
                    <mxGeometry x="1040" y="680" width="40" height="40" as="geometry"/>
                </mxCell>
                <mxCell id="417" value="" style="rounded=0;whiteSpace=wrap;html=1;strokeColor=#760000;fillColor=#760000;" parent="1" vertex="1">
                    <mxGeometry x="800" y="640" width="40" height="40" as="geometry"/>
                </mxCell>
                <mxCell id="418" value="" style="rounded=0;whiteSpace=wrap;html=1;strokeColor=#760000;fillColor=#760000;" parent="1" vertex="1">
                    <mxGeometry x="840" y="640" width="40" height="40" as="geometry"/>
                </mxCell>
                <mxCell id="419" value="" style="rounded=0;whiteSpace=wrap;html=1;strokeColor=#760000;fillColor=#760000;" parent="1" vertex="1">
                    <mxGeometry x="880" y="640" width="40" height="40" as="geometry"/>
                </mxCell>
                <mxCell id="420" value="" style="rounded=0;whiteSpace=wrap;html=1;strokeColor=#760000;fillColor=#760000;" parent="1" vertex="1">
                    <mxGeometry x="920" y="640" width="40" height="40" as="geometry"/>
                </mxCell>
                <mxCell id="421" value="" style="rounded=0;whiteSpace=wrap;html=1;strokeColor=#760000;fillColor=#760000;" parent="1" vertex="1">
                    <mxGeometry x="960" y="640" width="40" height="40" as="geometry"/>
                </mxCell>
                <mxCell id="422" value="" style="rounded=0;whiteSpace=wrap;html=1;strokeColor=#760000;fillColor=#760000;" parent="1" vertex="1">
                    <mxGeometry x="1000" y="640" width="40" height="40" as="geometry"/>
                </mxCell>
                <mxCell id="423" value="" style="rounded=0;whiteSpace=wrap;html=1;strokeColor=#760000;fillColor=#760000;" parent="1" vertex="1">
                    <mxGeometry x="1040" y="640" width="40" height="40" as="geometry"/>
                </mxCell>
                <mxCell id="424" value="" style="rounded=0;whiteSpace=wrap;html=1;strokeColor=#B30000;fillColor=#B30000;" parent="1" vertex="1">
                    <mxGeometry x="800" y="600" width="40" height="40" as="geometry"/>
                </mxCell>
                <mxCell id="425" value="" style="rounded=0;whiteSpace=wrap;html=1;strokeColor=#B30000;fillColor=#B30000;" parent="1" vertex="1">
                    <mxGeometry x="840" y="600" width="40" height="40" as="geometry"/>
                </mxCell>
                <mxCell id="426" value="" style="rounded=0;whiteSpace=wrap;html=1;strokeColor=#B30000;fillColor=#B30000;" parent="1" vertex="1">
                    <mxGeometry x="880" y="600" width="40" height="40" as="geometry"/>
                </mxCell>
                <mxCell id="427" value="" style="rounded=0;whiteSpace=wrap;html=1;strokeColor=#B30000;fillColor=#B30000;" parent="1" vertex="1">
                    <mxGeometry x="920" y="600" width="40" height="40" as="geometry"/>
                </mxCell>
                <mxCell id="428" value="" style="rounded=0;whiteSpace=wrap;html=1;strokeColor=#B30000;fillColor=#B30000;" parent="1" vertex="1">
                    <mxGeometry x="960" y="600" width="40" height="40" as="geometry"/>
                </mxCell>
                <mxCell id="429" value="" style="rounded=0;whiteSpace=wrap;html=1;strokeColor=#B30000;fillColor=#B30000;" parent="1" vertex="1">
                    <mxGeometry x="1000" y="600" width="40" height="40" as="geometry"/>
                </mxCell>
                <mxCell id="430" value="" style="rounded=0;whiteSpace=wrap;html=1;strokeColor=#B30000;fillColor=#B30000;" parent="1" vertex="1">
                    <mxGeometry x="1040" y="600" width="40" height="40" as="geometry"/>
                </mxCell>
                <mxCell id="431" value="" style="rounded=0;whiteSpace=wrap;html=1;strokeColor=#B30000;fillColor=#B30000;" parent="1" vertex="1">
                    <mxGeometry x="800" y="560" width="40" height="40" as="geometry"/>
                </mxCell>
                <mxCell id="432" value="" style="rounded=0;whiteSpace=wrap;html=1;strokeColor=#B30000;fillColor=#B30000;" parent="1" vertex="1">
                    <mxGeometry x="840" y="560" width="40" height="40" as="geometry"/>
                </mxCell>
                <mxCell id="433" value="" style="rounded=0;whiteSpace=wrap;html=1;strokeColor=#B30000;fillColor=#B30000;" parent="1" vertex="1">
                    <mxGeometry x="880" y="560" width="40" height="40" as="geometry"/>
                </mxCell>
                <mxCell id="434" value="" style="rounded=0;whiteSpace=wrap;html=1;strokeColor=#B30000;fillColor=#B30000;" parent="1" vertex="1">
                    <mxGeometry x="920" y="560" width="40" height="40" as="geometry"/>
                </mxCell>
                <mxCell id="435" value="" style="rounded=0;whiteSpace=wrap;html=1;strokeColor=#B30000;fillColor=#B30000;" parent="1" vertex="1">
                    <mxGeometry x="960" y="560" width="40" height="40" as="geometry"/>
                </mxCell>
                <mxCell id="436" value="" style="rounded=0;whiteSpace=wrap;html=1;strokeColor=#B30000;fillColor=#B30000;" parent="1" vertex="1">
                    <mxGeometry x="1000" y="560" width="40" height="40" as="geometry"/>
                </mxCell>
                <mxCell id="437" value="" style="rounded=0;whiteSpace=wrap;html=1;strokeColor=#B30000;fillColor=#B30000;" parent="1" vertex="1">
                    <mxGeometry x="1040" y="560" width="40" height="40" as="geometry"/>
                </mxCell>
                <mxCell id="438" value="" style="rounded=0;whiteSpace=wrap;html=1;strokeColor=#E8AA96;fillColor=#E8AA96;" parent="1" vertex="1">
                    <mxGeometry x="800" y="520" width="40" height="40" as="geometry"/>
                </mxCell>
                <mxCell id="439" value="" style="rounded=0;whiteSpace=wrap;html=1;strokeColor=#E8AA96;fillColor=#E8AA96;" parent="1" vertex="1">
                    <mxGeometry x="840" y="520" width="40" height="40" as="geometry"/>
                </mxCell>
                <mxCell id="440" value="" style="rounded=0;whiteSpace=wrap;html=1;strokeColor=#E8AA96;fillColor=#E8AA96;" parent="1" vertex="1">
                    <mxGeometry x="880" y="520" width="40" height="40" as="geometry"/>
                </mxCell>
                <mxCell id="441" value="" style="rounded=0;whiteSpace=wrap;html=1;strokeColor=#E8AA96;fillColor=#E8AA96;" parent="1" vertex="1">
                    <mxGeometry x="920" y="520" width="40" height="40" as="geometry"/>
                </mxCell>
                <mxCell id="442" value="" style="rounded=0;whiteSpace=wrap;html=1;strokeColor=#E8AA96;fillColor=#E8AA96;" parent="1" vertex="1">
                    <mxGeometry x="960" y="520" width="40" height="40" as="geometry"/>
                </mxCell>
                <mxCell id="443" value="" style="rounded=0;whiteSpace=wrap;html=1;strokeColor=#E8AA96;fillColor=#E8AA96;" parent="1" vertex="1">
                    <mxGeometry x="1000" y="520" width="40" height="40" as="geometry"/>
                </mxCell>
                <mxCell id="444" value="" style="rounded=0;whiteSpace=wrap;html=1;strokeColor=#E8AA96;fillColor=#E8AA96;" parent="1" vertex="1">
                    <mxGeometry x="1040" y="520" width="40" height="40" as="geometry"/>
                </mxCell>
                <mxCell id="445" value="" style="rounded=0;whiteSpace=wrap;html=1;strokeColor=#B30000;fillColor=#B30000;" parent="1" vertex="1">
                    <mxGeometry x="800" y="480" width="40" height="40" as="geometry"/>
                </mxCell>
                <mxCell id="446" value="" style="rounded=0;whiteSpace=wrap;html=1;strokeColor=#B30000;fillColor=#B30000;" parent="1" vertex="1">
                    <mxGeometry x="840" y="480" width="40" height="40" as="geometry"/>
                </mxCell>
                <mxCell id="447" value="" style="rounded=0;whiteSpace=wrap;html=1;strokeColor=#B30000;fillColor=#B30000;" parent="1" vertex="1">
                    <mxGeometry x="880" y="480" width="40" height="40" as="geometry"/>
                </mxCell>
                <mxCell id="448" value="" style="rounded=0;whiteSpace=wrap;html=1;strokeColor=#B30000;fillColor=#B30000;" parent="1" vertex="1">
                    <mxGeometry x="920" y="480" width="40" height="40" as="geometry"/>
                </mxCell>
                <mxCell id="449" value="" style="rounded=0;whiteSpace=wrap;html=1;strokeColor=#B30000;fillColor=#B30000;" parent="1" vertex="1">
                    <mxGeometry x="960" y="480" width="40" height="40" as="geometry"/>
                </mxCell>
                <mxCell id="450" value="" style="rounded=0;whiteSpace=wrap;html=1;strokeColor=#B30000;fillColor=#B30000;" parent="1" vertex="1">
                    <mxGeometry x="1000" y="480" width="40" height="40" as="geometry"/>
                </mxCell>
                <mxCell id="451" value="" style="rounded=0;whiteSpace=wrap;html=1;strokeColor=#B30000;fillColor=#B30000;" parent="1" vertex="1">
                    <mxGeometry x="1040" y="480" width="40" height="40" as="geometry"/>
                </mxCell>
                <mxCell id="452" value="" style="rounded=0;whiteSpace=wrap;html=1;strokeColor=#760000;fillColor=#760000;" parent="1" vertex="1">
                    <mxGeometry x="720" y="640" width="40" height="40" as="geometry"/>
                </mxCell>
                <mxCell id="453" value="" style="rounded=0;whiteSpace=wrap;html=1;strokeColor=#760000;fillColor=#760000;" parent="1" vertex="1">
                    <mxGeometry x="760" y="640" width="40" height="40" as="geometry"/>
                </mxCell>
                <mxCell id="454" value="" style="rounded=0;whiteSpace=wrap;html=1;strokeColor=#B30000;fillColor=#B30000;" parent="1" vertex="1">
                    <mxGeometry x="720" y="600" width="40" height="40" as="geometry"/>
                </mxCell>
                <mxCell id="455" value="" style="rounded=0;whiteSpace=wrap;html=1;strokeColor=#B30000;fillColor=#B30000;" parent="1" vertex="1">
                    <mxGeometry x="760" y="600" width="40" height="40" as="geometry"/>
                </mxCell>
                <mxCell id="456" value="" style="rounded=0;whiteSpace=wrap;html=1;strokeColor=#B30000;fillColor=#B30000;" parent="1" vertex="1">
                    <mxGeometry x="720" y="560" width="40" height="40" as="geometry"/>
                </mxCell>
                <mxCell id="457" value="" style="rounded=0;whiteSpace=wrap;html=1;strokeColor=#B30000;fillColor=#B30000;" parent="1" vertex="1">
                    <mxGeometry x="760" y="560" width="40" height="40" as="geometry"/>
                </mxCell>
                <mxCell id="458" value="" style="rounded=0;whiteSpace=wrap;html=1;strokeColor=#E8AA96;fillColor=#E8AA96;" parent="1" vertex="1">
                    <mxGeometry x="720" y="520" width="40" height="40" as="geometry"/>
                </mxCell>
                <mxCell id="459" value="" style="rounded=0;whiteSpace=wrap;html=1;strokeColor=#E8AA96;fillColor=#E8AA96;" parent="1" vertex="1">
                    <mxGeometry x="760" y="520" width="40" height="40" as="geometry"/>
                </mxCell>
                <mxCell id="460" value="" style="rounded=0;whiteSpace=wrap;html=1;strokeColor=#B30000;fillColor=#B30000;" parent="1" vertex="1">
                    <mxGeometry x="720" y="480" width="40" height="40" as="geometry"/>
                </mxCell>
                <mxCell id="461" value="" style="rounded=0;whiteSpace=wrap;html=1;strokeColor=#B30000;fillColor=#B30000;" parent="1" vertex="1">
                    <mxGeometry x="760" y="480" width="40" height="40" as="geometry"/>
                </mxCell>
                <mxCell id="462" value="" style="rounded=0;whiteSpace=wrap;html=1;strokeColor=#350505;fillColor=#350505;" parent="1" vertex="1">
                    <mxGeometry x="1120" y="200" width="40" height="40" as="geometry"/>
                </mxCell>
                <mxCell id="463" value="" style="rounded=0;whiteSpace=wrap;html=1;strokeColor=#350505;fillColor=#350505;" parent="1" vertex="1">
                    <mxGeometry x="1160" y="160" width="40" height="40" as="geometry"/>
                </mxCell>
                <mxCell id="464" value="" style="rounded=0;whiteSpace=wrap;html=1;strokeColor=#350505;fillColor=#350505;" parent="1" vertex="1">
                    <mxGeometry x="1120" y="240" width="40" height="40" as="geometry"/>
                </mxCell>
                <mxCell id="465" value="" style="rounded=0;whiteSpace=wrap;html=1;strokeColor=#350505;fillColor=#350505;" parent="1" vertex="1">
                    <mxGeometry x="1120" y="280" width="40" height="40" as="geometry"/>
                </mxCell>
                <mxCell id="466" value="" style="rounded=0;whiteSpace=wrap;html=1;strokeColor=#350505;fillColor=#350505;" parent="1" vertex="1">
                    <mxGeometry x="1160" y="320" width="40" height="40" as="geometry"/>
                </mxCell>
                <mxCell id="467" value="" style="rounded=0;whiteSpace=wrap;html=1;strokeColor=#350505;fillColor=#350505;" parent="1" vertex="1">
                    <mxGeometry x="1200" y="360" width="40" height="40" as="geometry"/>
                </mxCell>
                <mxCell id="468" value="" style="rounded=0;whiteSpace=wrap;html=1;strokeColor=#350505;fillColor=#350505;" parent="1" vertex="1">
                    <mxGeometry x="1200" y="120" width="40" height="40" as="geometry"/>
                </mxCell>
                <mxCell id="469" value="" style="rounded=0;whiteSpace=wrap;html=1;strokeColor=#350505;fillColor=#350505;" parent="1" vertex="1">
                    <mxGeometry x="1240" y="120" width="40" height="40" as="geometry"/>
                </mxCell>
                <mxCell id="470" value="" style="rounded=0;whiteSpace=wrap;html=1;strokeColor=#350505;fillColor=#350505;" parent="1" vertex="1">
                    <mxGeometry x="1280" y="120" width="40" height="40" as="geometry"/>
                </mxCell>
                <mxCell id="471" value="" style="rounded=0;whiteSpace=wrap;html=1;strokeColor=#350505;fillColor=#350505;" parent="1" vertex="1">
                    <mxGeometry x="1320" y="120" width="40" height="40" as="geometry"/>
                </mxCell>
                <mxCell id="472" value="" style="rounded=0;whiteSpace=wrap;html=1;strokeColor=#350505;fillColor=#350505;" parent="1" vertex="1">
                    <mxGeometry x="1360" y="120" width="40" height="40" as="geometry"/>
                </mxCell>
                <mxCell id="473" value="" style="rounded=0;whiteSpace=wrap;html=1;strokeColor=#350505;fillColor=#350505;" parent="1" vertex="1">
                    <mxGeometry x="1400" y="120" width="40" height="40" as="geometry"/>
                </mxCell>
                <mxCell id="474" value="" style="rounded=0;whiteSpace=wrap;html=1;strokeColor=#350505;fillColor=#350505;" parent="1" vertex="1">
                    <mxGeometry x="1440" y="120" width="40" height="40" as="geometry"/>
                </mxCell>
                <mxCell id="475" value="" style="rounded=0;whiteSpace=wrap;html=1;strokeColor=#350505;fillColor=#350505;" parent="1" vertex="1">
                    <mxGeometry x="1480" y="120" width="40" height="40" as="geometry"/>
                </mxCell>
                <mxCell id="476" value="" style="rounded=0;whiteSpace=wrap;html=1;strokeColor=#350505;fillColor=#350505;" parent="1" vertex="1">
                    <mxGeometry x="1240" y="360" width="40" height="40" as="geometry"/>
                </mxCell>
                <mxCell id="477" value="" style="rounded=0;whiteSpace=wrap;html=1;strokeColor=#350505;fillColor=#350505;" parent="1" vertex="1">
                    <mxGeometry x="1280" y="360" width="40" height="40" as="geometry"/>
                </mxCell>
                <mxCell id="478" value="" style="rounded=0;whiteSpace=wrap;html=1;strokeColor=#350505;fillColor=#350505;" parent="1" vertex="1">
                    <mxGeometry x="1320" y="360" width="40" height="40" as="geometry"/>
                </mxCell>
                <mxCell id="479" value="" style="rounded=0;whiteSpace=wrap;html=1;strokeColor=#350505;fillColor=#350505;" parent="1" vertex="1">
                    <mxGeometry x="1360" y="360" width="40" height="40" as="geometry"/>
                </mxCell>
                <mxCell id="480" value="" style="rounded=0;whiteSpace=wrap;html=1;strokeColor=#350505;fillColor=#350505;" parent="1" vertex="1">
                    <mxGeometry x="1400" y="360" width="40" height="40" as="geometry"/>
                </mxCell>
                <mxCell id="481" value="" style="rounded=0;whiteSpace=wrap;html=1;strokeColor=#350505;fillColor=#350505;" parent="1" vertex="1">
                    <mxGeometry x="1440" y="360" width="40" height="40" as="geometry"/>
                </mxCell>
                <mxCell id="482" value="" style="rounded=0;whiteSpace=wrap;html=1;strokeColor=#350505;fillColor=#350505;" parent="1" vertex="1">
                    <mxGeometry x="1480" y="360" width="40" height="40" as="geometry"/>
                </mxCell>
                <mxCell id="483" value="" style="rounded=0;whiteSpace=wrap;html=1;strokeColor=#452C2C;fillColor=#452C2C;" parent="1" vertex="1">
                    <mxGeometry x="1200" y="320" width="40" height="40" as="geometry"/>
                </mxCell>
                <mxCell id="484" value="" style="rounded=0;whiteSpace=wrap;html=1;strokeColor=#452C2C;fillColor=#452C2C;" parent="1" vertex="1">
                    <mxGeometry x="1240" y="320" width="40" height="40" as="geometry"/>
                </mxCell>
                <mxCell id="485" value="" style="rounded=0;whiteSpace=wrap;html=1;strokeColor=#452C2C;fillColor=#452C2C;" parent="1" vertex="1">
                    <mxGeometry x="1280" y="320" width="40" height="40" as="geometry"/>
                </mxCell>
                <mxCell id="486" value="" style="rounded=0;whiteSpace=wrap;html=1;strokeColor=#452C2C;fillColor=#452C2C;" parent="1" vertex="1">
                    <mxGeometry x="1320" y="320" width="40" height="40" as="geometry"/>
                </mxCell>
                <mxCell id="487" value="" style="rounded=0;whiteSpace=wrap;html=1;strokeColor=#452C2C;fillColor=#452C2C;" parent="1" vertex="1">
                    <mxGeometry x="1360" y="320" width="40" height="40" as="geometry"/>
                </mxCell>
                <mxCell id="488" value="" style="rounded=0;whiteSpace=wrap;html=1;strokeColor=#452C2C;fillColor=#452C2C;" parent="1" vertex="1">
                    <mxGeometry x="1400" y="320" width="40" height="40" as="geometry"/>
                </mxCell>
                <mxCell id="489" value="" style="rounded=0;whiteSpace=wrap;html=1;strokeColor=#452C2C;fillColor=#452C2C;" parent="1" vertex="1">
                    <mxGeometry x="1440" y="320" width="40" height="40" as="geometry"/>
                </mxCell>
                <mxCell id="490" value="" style="rounded=0;whiteSpace=wrap;html=1;strokeColor=#452C2C;fillColor=#452C2C;" parent="1" vertex="1">
                    <mxGeometry x="1480" y="320" width="40" height="40" as="geometry"/>
                </mxCell>
                <mxCell id="491" value="" style="rounded=0;whiteSpace=wrap;html=1;strokeColor=#5F3D3D;fillColor=#5F3D3D;" parent="1" vertex="1">
                    <mxGeometry x="1200" y="280" width="40" height="40" as="geometry"/>
                </mxCell>
                <mxCell id="492" value="" style="rounded=0;whiteSpace=wrap;html=1;strokeColor=#5F3D3D;fillColor=#5F3D3D;" parent="1" vertex="1">
                    <mxGeometry x="1240" y="280" width="40" height="40" as="geometry"/>
                </mxCell>
                <mxCell id="493" value="" style="rounded=0;whiteSpace=wrap;html=1;strokeColor=#5F3D3D;fillColor=#5F3D3D;" parent="1" vertex="1">
                    <mxGeometry x="1280" y="280" width="40" height="40" as="geometry"/>
                </mxCell>
                <mxCell id="494" value="" style="rounded=0;whiteSpace=wrap;html=1;strokeColor=#5F3D3D;fillColor=#5F3D3D;" parent="1" vertex="1">
                    <mxGeometry x="1320" y="280" width="40" height="40" as="geometry"/>
                </mxCell>
                <mxCell id="495" value="" style="rounded=0;whiteSpace=wrap;html=1;strokeColor=#5F3D3D;fillColor=#5F3D3D;" parent="1" vertex="1">
                    <mxGeometry x="1360" y="280" width="40" height="40" as="geometry"/>
                </mxCell>
                <mxCell id="496" value="" style="rounded=0;whiteSpace=wrap;html=1;strokeColor=#5F3D3D;fillColor=#5F3D3D;" parent="1" vertex="1">
                    <mxGeometry x="1400" y="280" width="40" height="40" as="geometry"/>
                </mxCell>
                <mxCell id="497" value="" style="rounded=0;whiteSpace=wrap;html=1;strokeColor=#5F3D3D;fillColor=#5F3D3D;" parent="1" vertex="1">
                    <mxGeometry x="1440" y="280" width="40" height="40" as="geometry"/>
                </mxCell>
                <mxCell id="498" value="" style="rounded=0;whiteSpace=wrap;html=1;strokeColor=#5F3D3D;fillColor=#5F3D3D;" parent="1" vertex="1">
                    <mxGeometry x="1480" y="280" width="40" height="40" as="geometry"/>
                </mxCell>
                <mxCell id="499" value="" style="rounded=0;whiteSpace=wrap;html=1;strokeColor=#5F3D3D;fillColor=#5F3D3D;" parent="1" vertex="1">
                    <mxGeometry x="1200" y="240" width="40" height="40" as="geometry"/>
                </mxCell>
                <mxCell id="500" value="" style="rounded=0;whiteSpace=wrap;html=1;strokeColor=#5F3D3D;fillColor=#5F3D3D;" parent="1" vertex="1">
                    <mxGeometry x="1240" y="240" width="40" height="40" as="geometry"/>
                </mxCell>
                <mxCell id="501" value="" style="rounded=0;whiteSpace=wrap;html=1;strokeColor=#5F3D3D;fillColor=#5F3D3D;" parent="1" vertex="1">
                    <mxGeometry x="1280" y="240" width="40" height="40" as="geometry"/>
                </mxCell>
                <mxCell id="502" value="" style="rounded=0;whiteSpace=wrap;html=1;strokeColor=#5F3D3D;fillColor=#5F3D3D;" parent="1" vertex="1">
                    <mxGeometry x="1320" y="240" width="40" height="40" as="geometry"/>
                </mxCell>
                <mxCell id="503" value="" style="rounded=0;whiteSpace=wrap;html=1;strokeColor=#5F3D3D;fillColor=#5F3D3D;" parent="1" vertex="1">
                    <mxGeometry x="1360" y="240" width="40" height="40" as="geometry"/>
                </mxCell>
                <mxCell id="504" value="" style="rounded=0;whiteSpace=wrap;html=1;strokeColor=#5F3D3D;fillColor=#5F3D3D;" parent="1" vertex="1">
                    <mxGeometry x="1400" y="240" width="40" height="40" as="geometry"/>
                </mxCell>
                <mxCell id="505" value="" style="rounded=0;whiteSpace=wrap;html=1;strokeColor=#5F3D3D;fillColor=#5F3D3D;" parent="1" vertex="1">
                    <mxGeometry x="1440" y="240" width="40" height="40" as="geometry"/>
                </mxCell>
                <mxCell id="506" value="" style="rounded=0;whiteSpace=wrap;html=1;strokeColor=#5F3D3D;fillColor=#5F3D3D;" parent="1" vertex="1">
                    <mxGeometry x="1480" y="240" width="40" height="40" as="geometry"/>
                </mxCell>
                <mxCell id="507" value="" style="rounded=0;whiteSpace=wrap;html=1;strokeColor=#5F3D3D;fillColor=#5F3D3D;" parent="1" vertex="1">
                    <mxGeometry x="1200" y="200" width="40" height="40" as="geometry"/>
                </mxCell>
                <mxCell id="508" value="" style="rounded=0;whiteSpace=wrap;html=1;strokeColor=#9B6666;fillColor=#9B6666;" parent="1" vertex="1">
                    <mxGeometry x="1240" y="200" width="40" height="40" as="geometry"/>
                </mxCell>
                <mxCell id="509" value="" style="rounded=0;whiteSpace=wrap;html=1;strokeColor=#9B6666;fillColor=#9B6666;" parent="1" vertex="1">
                    <mxGeometry x="1280" y="200" width="40" height="40" as="geometry"/>
                </mxCell>
                <mxCell id="510" value="" style="rounded=0;whiteSpace=wrap;html=1;strokeColor=#9B6666;fillColor=#9B6666;" parent="1" vertex="1">
                    <mxGeometry x="1320" y="200" width="40" height="40" as="geometry"/>
                </mxCell>
                <mxCell id="511" value="" style="rounded=0;whiteSpace=wrap;html=1;strokeColor=#9B6666;fillColor=#9B6666;" parent="1" vertex="1">
                    <mxGeometry x="1360" y="200" width="40" height="40" as="geometry"/>
                </mxCell>
                <mxCell id="512" value="" style="rounded=0;whiteSpace=wrap;html=1;strokeColor=#9B6666;fillColor=#9B6666;" parent="1" vertex="1">
                    <mxGeometry x="1400" y="200" width="40" height="40" as="geometry"/>
                </mxCell>
                <mxCell id="513" value="" style="rounded=0;whiteSpace=wrap;html=1;strokeColor=#9B6666;fillColor=#9B6666;" parent="1" vertex="1">
                    <mxGeometry x="1440" y="200" width="40" height="40" as="geometry"/>
                </mxCell>
                <mxCell id="514" value="" style="rounded=0;whiteSpace=wrap;html=1;strokeColor=#9B6666;fillColor=#9B6666;" parent="1" vertex="1">
                    <mxGeometry x="1480" y="200" width="40" height="40" as="geometry"/>
                </mxCell>
                <mxCell id="515" value="" style="rounded=0;whiteSpace=wrap;html=1;strokeColor=#5F3D3D;fillColor=#5F3D3D;" parent="1" vertex="1">
                    <mxGeometry x="1200" y="160" width="40" height="40" as="geometry"/>
                </mxCell>
                <mxCell id="516" value="" style="rounded=0;whiteSpace=wrap;html=1;strokeColor=#5F3D3D;fillColor=#5F3D3D;" parent="1" vertex="1">
                    <mxGeometry x="1240" y="160" width="40" height="40" as="geometry"/>
                </mxCell>
                <mxCell id="517" value="" style="rounded=0;whiteSpace=wrap;html=1;strokeColor=#5F3D3D;fillColor=#5F3D3D;" parent="1" vertex="1">
                    <mxGeometry x="1280" y="160" width="40" height="40" as="geometry"/>
                </mxCell>
                <mxCell id="518" value="" style="rounded=0;whiteSpace=wrap;html=1;strokeColor=#5F3D3D;fillColor=#5F3D3D;" parent="1" vertex="1">
                    <mxGeometry x="1320" y="160" width="40" height="40" as="geometry"/>
                </mxCell>
                <mxCell id="519" value="" style="rounded=0;whiteSpace=wrap;html=1;strokeColor=#5F3D3D;fillColor=#5F3D3D;" parent="1" vertex="1">
                    <mxGeometry x="1360" y="160" width="40" height="40" as="geometry"/>
                </mxCell>
                <mxCell id="520" value="" style="rounded=0;whiteSpace=wrap;html=1;strokeColor=#5F3D3D;fillColor=#5F3D3D;" parent="1" vertex="1">
                    <mxGeometry x="1400" y="160" width="40" height="40" as="geometry"/>
                </mxCell>
                <mxCell id="521" value="" style="rounded=0;whiteSpace=wrap;html=1;strokeColor=#5F3D3D;fillColor=#5F3D3D;" parent="1" vertex="1">
                    <mxGeometry x="1440" y="160" width="40" height="40" as="geometry"/>
                </mxCell>
                <mxCell id="522" value="" style="rounded=0;whiteSpace=wrap;html=1;strokeColor=#5F3D3D;fillColor=#5F3D3D;" parent="1" vertex="1">
                    <mxGeometry x="1480" y="160" width="40" height="40" as="geometry"/>
                </mxCell>
                <mxCell id="523" value="" style="rounded=0;whiteSpace=wrap;html=1;strokeColor=#5F3D3D;fillColor=#5F3D3D;" parent="1" vertex="1">
                    <mxGeometry x="1160" y="200" width="40" height="40" as="geometry"/>
                </mxCell>
                <mxCell id="524" value="" style="rounded=0;whiteSpace=wrap;html=1;strokeColor=#5F3D3D;fillColor=#5F3D3D;" parent="1" vertex="1">
                    <mxGeometry x="1160" y="240" width="40" height="40" as="geometry"/>
                </mxCell>
                <mxCell id="525" value="" style="rounded=0;whiteSpace=wrap;html=1;strokeColor=#452C2C;fillColor=#452C2C;" parent="1" vertex="1">
                    <mxGeometry x="1160" y="280" width="40" height="40" as="geometry"/>
                </mxCell>
                <mxCell id="526" value="" style="rounded=0;whiteSpace=wrap;html=1;strokeColor=#350505;fillColor=#350505;" parent="1" vertex="1">
                    <mxGeometry x="1040" y="840" width="40" height="40" as="geometry"/>
                </mxCell>
                <mxCell id="527" value="" style="rounded=0;whiteSpace=wrap;html=1;strokeColor=#350505;fillColor=#350505;" parent="1" vertex="1">
                    <mxGeometry x="1000" y="800" width="40" height="40" as="geometry"/>
                </mxCell>
                <mxCell id="528" value="" style="rounded=0;whiteSpace=wrap;html=1;strokeColor=#350505;fillColor=#350505;" parent="1" vertex="1">
                    <mxGeometry x="1040" y="880" width="40" height="40" as="geometry"/>
                </mxCell>
                <mxCell id="529" value="" style="rounded=0;whiteSpace=wrap;html=1;strokeColor=#350505;fillColor=#350505;" parent="1" vertex="1">
                    <mxGeometry x="1040" y="920" width="40" height="40" as="geometry"/>
                </mxCell>
                <mxCell id="530" value="" style="rounded=0;whiteSpace=wrap;html=1;strokeColor=#350505;fillColor=#350505;" parent="1" vertex="1">
                    <mxGeometry x="1000" y="960" width="40" height="40" as="geometry"/>
                </mxCell>
                <mxCell id="531" value="" style="rounded=0;whiteSpace=wrap;html=1;strokeColor=#350505;fillColor=#350505;" parent="1" vertex="1">
                    <mxGeometry x="680" y="800" width="40" height="40" as="geometry"/>
                </mxCell>
                <mxCell id="532" value="" style="rounded=0;whiteSpace=wrap;html=1;strokeColor=#350505;fillColor=#350505;" parent="1" vertex="1">
                    <mxGeometry x="680" y="760" width="40" height="40" as="geometry"/>
                </mxCell>
                <mxCell id="533" value="" style="rounded=0;whiteSpace=wrap;html=1;strokeColor=#350505;fillColor=#350505;" parent="1" vertex="1">
                    <mxGeometry x="680" y="880" width="40" height="40" as="geometry"/>
                </mxCell>
                <mxCell id="534" value="" style="rounded=0;whiteSpace=wrap;html=1;strokeColor=#350505;fillColor=#350505;" parent="1" vertex="1">
                    <mxGeometry x="680" y="840" width="40" height="40" as="geometry"/>
                </mxCell>
                <mxCell id="535" value="" style="rounded=0;whiteSpace=wrap;html=1;strokeColor=#350505;fillColor=#350505;" parent="1" vertex="1">
                    <mxGeometry x="680" y="920" width="40" height="40" as="geometry"/>
                </mxCell>
                <mxCell id="536" value="" style="rounded=0;whiteSpace=wrap;html=1;strokeColor=#350505;fillColor=#350505;" parent="1" vertex="1">
                    <mxGeometry x="680" y="1000" width="40" height="40" as="geometry"/>
                </mxCell>
                <mxCell id="537" value="" style="rounded=0;whiteSpace=wrap;html=1;strokeColor=#350505;fillColor=#350505;" parent="1" vertex="1">
                    <mxGeometry x="680" y="960" width="40" height="40" as="geometry"/>
                </mxCell>
                <mxCell id="538" value="" style="rounded=0;whiteSpace=wrap;html=1;strokeColor=#350505;fillColor=#350505;" parent="1" vertex="1">
                    <mxGeometry x="720" y="760" width="40" height="40" as="geometry"/>
                </mxCell>
                <mxCell id="539" value="" style="rounded=0;whiteSpace=wrap;html=1;strokeColor=#350505;fillColor=#350505;" parent="1" vertex="1">
                    <mxGeometry x="760" y="760" width="40" height="40" as="geometry"/>
                </mxCell>
                <mxCell id="540" value="" style="rounded=0;whiteSpace=wrap;html=1;strokeColor=#350505;fillColor=#350505;" parent="1" vertex="1">
                    <mxGeometry x="800" y="760" width="40" height="40" as="geometry"/>
                </mxCell>
                <mxCell id="541" value="" style="rounded=0;whiteSpace=wrap;html=1;strokeColor=#350505;fillColor=#350505;" parent="1" vertex="1">
                    <mxGeometry x="840" y="760" width="40" height="40" as="geometry"/>
                </mxCell>
                <mxCell id="542" value="" style="rounded=0;whiteSpace=wrap;html=1;strokeColor=#350505;fillColor=#350505;" parent="1" vertex="1">
                    <mxGeometry x="880" y="760" width="40" height="40" as="geometry"/>
                </mxCell>
                <mxCell id="543" value="" style="rounded=0;whiteSpace=wrap;html=1;strokeColor=#350505;fillColor=#350505;" parent="1" vertex="1">
                    <mxGeometry x="920" y="760" width="40" height="40" as="geometry"/>
                </mxCell>
                <mxCell id="544" value="" style="rounded=0;whiteSpace=wrap;html=1;strokeColor=#350505;fillColor=#350505;" parent="1" vertex="1">
                    <mxGeometry x="960" y="760" width="40" height="40" as="geometry"/>
                </mxCell>
                <mxCell id="545" value="" style="rounded=0;whiteSpace=wrap;html=1;strokeColor=#350505;fillColor=#350505;" parent="1" vertex="1">
                    <mxGeometry x="720" y="1000" width="40" height="40" as="geometry"/>
                </mxCell>
                <mxCell id="546" value="" style="rounded=0;whiteSpace=wrap;html=1;strokeColor=#350505;fillColor=#350505;" parent="1" vertex="1">
                    <mxGeometry x="760" y="1000" width="40" height="40" as="geometry"/>
                </mxCell>
                <mxCell id="547" value="" style="rounded=0;whiteSpace=wrap;html=1;strokeColor=#350505;fillColor=#350505;" parent="1" vertex="1">
                    <mxGeometry x="800" y="1000" width="40" height="40" as="geometry"/>
                </mxCell>
                <mxCell id="548" value="" style="rounded=0;whiteSpace=wrap;html=1;strokeColor=#350505;fillColor=#350505;" parent="1" vertex="1">
                    <mxGeometry x="840" y="1000" width="40" height="40" as="geometry"/>
                </mxCell>
                <mxCell id="549" value="" style="rounded=0;whiteSpace=wrap;html=1;strokeColor=#350505;fillColor=#350505;" parent="1" vertex="1">
                    <mxGeometry x="880" y="1000" width="40" height="40" as="geometry"/>
                </mxCell>
                <mxCell id="550" value="" style="rounded=0;whiteSpace=wrap;html=1;strokeColor=#350505;fillColor=#350505;" parent="1" vertex="1">
                    <mxGeometry x="920" y="1000" width="40" height="40" as="geometry"/>
                </mxCell>
                <mxCell id="551" value="" style="rounded=0;whiteSpace=wrap;html=1;strokeColor=#350505;fillColor=#350505;" parent="1" vertex="1">
                    <mxGeometry x="960" y="1000" width="40" height="40" as="geometry"/>
                </mxCell>
                <mxCell id="552" value="" style="rounded=0;whiteSpace=wrap;html=1;strokeColor=#350505;fillColor=#350505;" parent="1" vertex="1">
                    <mxGeometry x="1480" y="840" width="40" height="40" as="geometry"/>
                </mxCell>
                <mxCell id="553" value="" style="rounded=0;whiteSpace=wrap;html=1;strokeColor=#350505;fillColor=#350505;" parent="1" vertex="1">
                    <mxGeometry x="1440" y="800" width="40" height="40" as="geometry"/>
                </mxCell>
                <mxCell id="554" value="" style="rounded=0;whiteSpace=wrap;html=1;strokeColor=#350505;fillColor=#350505;" parent="1" vertex="1">
                    <mxGeometry x="1480" y="880" width="40" height="40" as="geometry"/>
                </mxCell>
                <mxCell id="555" value="" style="rounded=0;whiteSpace=wrap;html=1;strokeColor=#350505;fillColor=#350505;" parent="1" vertex="1">
                    <mxGeometry x="1480" y="920" width="40" height="40" as="geometry"/>
                </mxCell>
                <mxCell id="556" value="" style="rounded=0;whiteSpace=wrap;html=1;strokeColor=#350505;fillColor=#350505;" parent="1" vertex="1">
                    <mxGeometry x="1440" y="960" width="40" height="40" as="geometry"/>
                </mxCell>
                <mxCell id="557" value="" style="rounded=0;whiteSpace=wrap;html=1;strokeColor=#350505;fillColor=#350505;" parent="1" vertex="1">
                    <mxGeometry x="1120" y="800" width="40" height="40" as="geometry"/>
                </mxCell>
                <mxCell id="558" value="" style="rounded=0;whiteSpace=wrap;html=1;strokeColor=#350505;fillColor=#350505;" parent="1" vertex="1">
                    <mxGeometry x="1120" y="760" width="40" height="40" as="geometry"/>
                </mxCell>
                <mxCell id="559" value="" style="rounded=0;whiteSpace=wrap;html=1;strokeColor=#350505;fillColor=#350505;" parent="1" vertex="1">
                    <mxGeometry x="1120" y="880" width="40" height="40" as="geometry"/>
                </mxCell>
                <mxCell id="560" value="" style="rounded=0;whiteSpace=wrap;html=1;strokeColor=#350505;fillColor=#350505;" parent="1" vertex="1">
                    <mxGeometry x="1120" y="840" width="40" height="40" as="geometry"/>
                </mxCell>
                <mxCell id="561" value="" style="rounded=0;whiteSpace=wrap;html=1;strokeColor=#350505;fillColor=#350505;" parent="1" vertex="1">
                    <mxGeometry x="1120" y="920" width="40" height="40" as="geometry"/>
                </mxCell>
                <mxCell id="562" value="" style="rounded=0;whiteSpace=wrap;html=1;strokeColor=#350505;fillColor=#350505;" parent="1" vertex="1">
                    <mxGeometry x="1120" y="1000" width="40" height="40" as="geometry"/>
                </mxCell>
                <mxCell id="563" value="" style="rounded=0;whiteSpace=wrap;html=1;strokeColor=#350505;fillColor=#350505;" parent="1" vertex="1">
                    <mxGeometry x="1120" y="960" width="40" height="40" as="geometry"/>
                </mxCell>
                <mxCell id="564" value="" style="rounded=0;whiteSpace=wrap;html=1;strokeColor=#350505;fillColor=#350505;" parent="1" vertex="1">
                    <mxGeometry x="1160" y="760" width="40" height="40" as="geometry"/>
                </mxCell>
                <mxCell id="565" value="" style="rounded=0;whiteSpace=wrap;html=1;strokeColor=#350505;fillColor=#350505;" parent="1" vertex="1">
                    <mxGeometry x="1200" y="760" width="40" height="40" as="geometry"/>
                </mxCell>
                <mxCell id="566" value="" style="rounded=0;whiteSpace=wrap;html=1;strokeColor=#350505;fillColor=#350505;" parent="1" vertex="1">
                    <mxGeometry x="1240" y="760" width="40" height="40" as="geometry"/>
                </mxCell>
                <mxCell id="567" value="" style="rounded=0;whiteSpace=wrap;html=1;strokeColor=#350505;fillColor=#350505;" parent="1" vertex="1">
                    <mxGeometry x="1280" y="760" width="40" height="40" as="geometry"/>
                </mxCell>
                <mxCell id="568" value="" style="rounded=0;whiteSpace=wrap;html=1;strokeColor=#350505;fillColor=#350505;" parent="1" vertex="1">
                    <mxGeometry x="1320" y="760" width="40" height="40" as="geometry"/>
                </mxCell>
                <mxCell id="569" value="" style="rounded=0;whiteSpace=wrap;html=1;strokeColor=#350505;fillColor=#350505;" parent="1" vertex="1">
                    <mxGeometry x="1360" y="760" width="40" height="40" as="geometry"/>
                </mxCell>
                <mxCell id="570" value="" style="rounded=0;whiteSpace=wrap;html=1;strokeColor=#350505;fillColor=#350505;" parent="1" vertex="1">
                    <mxGeometry x="1400" y="760" width="40" height="40" as="geometry"/>
                </mxCell>
                <mxCell id="571" value="" style="rounded=0;whiteSpace=wrap;html=1;strokeColor=#350505;fillColor=#350505;" parent="1" vertex="1">
                    <mxGeometry x="1160" y="1000" width="40" height="40" as="geometry"/>
                </mxCell>
                <mxCell id="572" value="" style="rounded=0;whiteSpace=wrap;html=1;strokeColor=#350505;fillColor=#350505;" parent="1" vertex="1">
                    <mxGeometry x="1200" y="1000" width="40" height="40" as="geometry"/>
                </mxCell>
                <mxCell id="573" value="" style="rounded=0;whiteSpace=wrap;html=1;strokeColor=#350505;fillColor=#350505;" parent="1" vertex="1">
                    <mxGeometry x="1240" y="1000" width="40" height="40" as="geometry"/>
                </mxCell>
                <mxCell id="574" value="" style="rounded=0;whiteSpace=wrap;html=1;strokeColor=#350505;fillColor=#350505;" parent="1" vertex="1">
                    <mxGeometry x="1280" y="1000" width="40" height="40" as="geometry"/>
                </mxCell>
                <mxCell id="575" value="" style="rounded=0;whiteSpace=wrap;html=1;strokeColor=#350505;fillColor=#350505;" parent="1" vertex="1">
                    <mxGeometry x="1320" y="1000" width="40" height="40" as="geometry"/>
                </mxCell>
                <mxCell id="576" value="" style="rounded=0;whiteSpace=wrap;html=1;strokeColor=#350505;fillColor=#350505;" parent="1" vertex="1">
                    <mxGeometry x="1360" y="1000" width="40" height="40" as="geometry"/>
                </mxCell>
                <mxCell id="577" value="" style="rounded=0;whiteSpace=wrap;html=1;strokeColor=#350505;fillColor=#350505;" parent="1" vertex="1">
                    <mxGeometry x="1400" y="1000" width="40" height="40" as="geometry"/>
                </mxCell>
                <mxCell id="578" value="" style="rounded=0;whiteSpace=wrap;html=1;strokeColor=#760000;fillColor=#760000;" parent="1" vertex="1">
                    <mxGeometry x="720" y="960" width="40" height="40" as="geometry"/>
                </mxCell>
                <mxCell id="579" value="" style="rounded=0;whiteSpace=wrap;html=1;strokeColor=#760000;fillColor=#760000;" parent="1" vertex="1">
                    <mxGeometry x="760" y="960" width="40" height="40" as="geometry"/>
                </mxCell>
                <mxCell id="580" value="" style="rounded=0;whiteSpace=wrap;html=1;strokeColor=#760000;fillColor=#760000;" parent="1" vertex="1">
                    <mxGeometry x="800" y="960" width="40" height="40" as="geometry"/>
                </mxCell>
                <mxCell id="581" value="" style="rounded=0;whiteSpace=wrap;html=1;strokeColor=#760000;fillColor=#760000;" parent="1" vertex="1">
                    <mxGeometry x="840" y="960" width="40" height="40" as="geometry"/>
                </mxCell>
                <mxCell id="582" value="" style="rounded=0;whiteSpace=wrap;html=1;strokeColor=#760000;fillColor=#760000;" parent="1" vertex="1">
                    <mxGeometry x="880" y="960" width="40" height="40" as="geometry"/>
                </mxCell>
                <mxCell id="583" value="" style="rounded=0;whiteSpace=wrap;html=1;strokeColor=#760000;fillColor=#760000;" parent="1" vertex="1">
                    <mxGeometry x="920" y="960" width="40" height="40" as="geometry"/>
                </mxCell>
                <mxCell id="584" value="" style="rounded=0;whiteSpace=wrap;html=1;strokeColor=#760000;fillColor=#760000;" parent="1" vertex="1">
                    <mxGeometry x="960" y="960" width="40" height="40" as="geometry"/>
                </mxCell>
                <mxCell id="585" value="" style="rounded=0;whiteSpace=wrap;html=1;strokeColor=#B30000;fillColor=#B30000;" parent="1" vertex="1">
                    <mxGeometry x="720" y="920" width="40" height="40" as="geometry"/>
                </mxCell>
                <mxCell id="586" value="" style="rounded=0;whiteSpace=wrap;html=1;strokeColor=#B30000;fillColor=#B30000;" parent="1" vertex="1">
                    <mxGeometry x="760" y="920" width="40" height="40" as="geometry"/>
                </mxCell>
                <mxCell id="587" value="" style="rounded=0;whiteSpace=wrap;html=1;strokeColor=#B30000;fillColor=#B30000;" parent="1" vertex="1">
                    <mxGeometry x="800" y="920" width="40" height="40" as="geometry"/>
                </mxCell>
                <mxCell id="588" value="" style="rounded=0;whiteSpace=wrap;html=1;strokeColor=#B30000;fillColor=#B30000;" parent="1" vertex="1">
                    <mxGeometry x="840" y="920" width="40" height="40" as="geometry"/>
                </mxCell>
                <mxCell id="589" value="" style="rounded=0;whiteSpace=wrap;html=1;strokeColor=#B30000;fillColor=#B30000;" parent="1" vertex="1">
                    <mxGeometry x="880" y="920" width="40" height="40" as="geometry"/>
                </mxCell>
                <mxCell id="590" value="" style="rounded=0;whiteSpace=wrap;html=1;strokeColor=#B30000;fillColor=#B30000;" parent="1" vertex="1">
                    <mxGeometry x="920" y="920" width="40" height="40" as="geometry"/>
                </mxCell>
                <mxCell id="591" value="" style="rounded=0;whiteSpace=wrap;html=1;strokeColor=#B30000;fillColor=#B30000;" parent="1" vertex="1">
                    <mxGeometry x="960" y="920" width="40" height="40" as="geometry"/>
                </mxCell>
                <mxCell id="592" value="" style="rounded=0;whiteSpace=wrap;html=1;strokeColor=#B30000;fillColor=#B30000;" parent="1" vertex="1">
                    <mxGeometry x="720" y="880" width="40" height="40" as="geometry"/>
                </mxCell>
                <mxCell id="593" value="" style="rounded=0;whiteSpace=wrap;html=1;strokeColor=#B30000;fillColor=#B30000;" parent="1" vertex="1">
                    <mxGeometry x="760" y="880" width="40" height="40" as="geometry"/>
                </mxCell>
                <mxCell id="594" value="" style="rounded=0;whiteSpace=wrap;html=1;strokeColor=#B30000;fillColor=#B30000;" parent="1" vertex="1">
                    <mxGeometry x="800" y="880" width="40" height="40" as="geometry"/>
                </mxCell>
                <mxCell id="595" value="" style="rounded=0;whiteSpace=wrap;html=1;strokeColor=#B30000;fillColor=#B30000;" parent="1" vertex="1">
                    <mxGeometry x="840" y="880" width="40" height="40" as="geometry"/>
                </mxCell>
                <mxCell id="596" value="" style="rounded=0;whiteSpace=wrap;html=1;strokeColor=#B30000;fillColor=#B30000;" parent="1" vertex="1">
                    <mxGeometry x="880" y="880" width="40" height="40" as="geometry"/>
                </mxCell>
                <mxCell id="597" value="" style="rounded=0;whiteSpace=wrap;html=1;strokeColor=#B30000;fillColor=#B30000;" parent="1" vertex="1">
                    <mxGeometry x="920" y="880" width="40" height="40" as="geometry"/>
                </mxCell>
                <mxCell id="598" value="" style="rounded=0;whiteSpace=wrap;html=1;strokeColor=#B30000;fillColor=#B30000;" parent="1" vertex="1">
                    <mxGeometry x="960" y="880" width="40" height="40" as="geometry"/>
                </mxCell>
                <mxCell id="599" value="" style="rounded=0;whiteSpace=wrap;html=1;strokeColor=#E8AA96;fillColor=#E8AA96;" parent="1" vertex="1">
                    <mxGeometry x="720" y="840" width="40" height="40" as="geometry"/>
                </mxCell>
                <mxCell id="600" value="" style="rounded=0;whiteSpace=wrap;html=1;strokeColor=#E8AA96;fillColor=#E8AA96;" parent="1" vertex="1">
                    <mxGeometry x="760" y="840" width="40" height="40" as="geometry"/>
                </mxCell>
                <mxCell id="601" value="" style="rounded=0;whiteSpace=wrap;html=1;strokeColor=#E8AA96;fillColor=#E8AA96;" parent="1" vertex="1">
                    <mxGeometry x="800" y="840" width="40" height="40" as="geometry"/>
                </mxCell>
                <mxCell id="602" value="" style="rounded=0;whiteSpace=wrap;html=1;strokeColor=#E8AA96;fillColor=#E8AA96;" parent="1" vertex="1">
                    <mxGeometry x="840" y="840" width="40" height="40" as="geometry"/>
                </mxCell>
                <mxCell id="603" value="" style="rounded=0;whiteSpace=wrap;html=1;strokeColor=#E8AA96;fillColor=#E8AA96;" parent="1" vertex="1">
                    <mxGeometry x="880" y="840" width="40" height="40" as="geometry"/>
                </mxCell>
                <mxCell id="604" value="" style="rounded=0;whiteSpace=wrap;html=1;strokeColor=#E8AA96;fillColor=#E8AA96;" parent="1" vertex="1">
                    <mxGeometry x="920" y="840" width="40" height="40" as="geometry"/>
                </mxCell>
                <mxCell id="606" value="" style="rounded=0;whiteSpace=wrap;html=1;strokeColor=#B30000;fillColor=#B30000;" parent="1" vertex="1">
                    <mxGeometry x="720" y="800" width="40" height="40" as="geometry"/>
                </mxCell>
                <mxCell id="607" value="" style="rounded=0;whiteSpace=wrap;html=1;strokeColor=#B30000;fillColor=#B30000;" parent="1" vertex="1">
                    <mxGeometry x="760" y="800" width="40" height="40" as="geometry"/>
                </mxCell>
                <mxCell id="608" value="" style="rounded=0;whiteSpace=wrap;html=1;strokeColor=#B30000;fillColor=#B30000;" parent="1" vertex="1">
                    <mxGeometry x="800" y="800" width="40" height="40" as="geometry"/>
                </mxCell>
                <mxCell id="609" value="" style="rounded=0;whiteSpace=wrap;html=1;strokeColor=#B30000;fillColor=#B30000;" parent="1" vertex="1">
                    <mxGeometry x="840" y="800" width="40" height="40" as="geometry"/>
                </mxCell>
                <mxCell id="610" value="" style="rounded=0;whiteSpace=wrap;html=1;strokeColor=#B30000;fillColor=#B30000;" parent="1" vertex="1">
                    <mxGeometry x="880" y="800" width="40" height="40" as="geometry"/>
                </mxCell>
                <mxCell id="611" value="" style="rounded=0;whiteSpace=wrap;html=1;strokeColor=#B30000;fillColor=#B30000;" parent="1" vertex="1">
                    <mxGeometry x="920" y="800" width="40" height="40" as="geometry"/>
                </mxCell>
                <mxCell id="612" value="" style="rounded=0;whiteSpace=wrap;html=1;strokeColor=#B30000;fillColor=#B30000;" parent="1" vertex="1">
                    <mxGeometry x="960" y="800" width="40" height="40" as="geometry"/>
                </mxCell>
                <mxCell id="613" value="" style="rounded=0;whiteSpace=wrap;html=1;strokeColor=#760000;fillColor=#760000;" parent="1" vertex="1">
                    <mxGeometry x="1000" y="920" width="40" height="40" as="geometry"/>
                </mxCell>
                <mxCell id="614" value="" style="rounded=0;whiteSpace=wrap;html=1;strokeColor=#B30000;fillColor=#B30000;" parent="1" vertex="1">
                    <mxGeometry x="960" y="840" width="40" height="40" as="geometry"/>
                </mxCell>
                <mxCell id="615" value="" style="rounded=0;whiteSpace=wrap;html=1;strokeColor=#B30000;fillColor=#B30000;" parent="1" vertex="1">
                    <mxGeometry x="1000" y="840" width="40" height="40" as="geometry"/>
                </mxCell>
                <mxCell id="616" value="" style="rounded=0;whiteSpace=wrap;html=1;strokeColor=#B30000;fillColor=#B30000;" parent="1" vertex="1">
                    <mxGeometry x="1000" y="880" width="40" height="40" as="geometry"/>
                </mxCell>
                <mxCell id="662" value="" style="rounded=0;whiteSpace=wrap;html=1;strokeColor=#452C2C;fillColor=#452C2C;" parent="1" vertex="1">
                    <mxGeometry x="1160" y="960" width="40" height="40" as="geometry"/>
                </mxCell>
                <mxCell id="663" value="" style="rounded=0;whiteSpace=wrap;html=1;strokeColor=#452C2C;fillColor=#452C2C;" parent="1" vertex="1">
                    <mxGeometry x="1200" y="960" width="40" height="40" as="geometry"/>
                </mxCell>
                <mxCell id="664" value="" style="rounded=0;whiteSpace=wrap;html=1;strokeColor=#452C2C;fillColor=#452C2C;" parent="1" vertex="1">
                    <mxGeometry x="1240" y="960" width="40" height="40" as="geometry"/>
                </mxCell>
                <mxCell id="665" value="" style="rounded=0;whiteSpace=wrap;html=1;strokeColor=#452C2C;fillColor=#452C2C;" parent="1" vertex="1">
                    <mxGeometry x="1280" y="960" width="40" height="40" as="geometry"/>
                </mxCell>
                <mxCell id="666" value="" style="rounded=0;whiteSpace=wrap;html=1;strokeColor=#452C2C;fillColor=#452C2C;" parent="1" vertex="1">
                    <mxGeometry x="1320" y="960" width="40" height="40" as="geometry"/>
                </mxCell>
                <mxCell id="667" value="" style="rounded=0;whiteSpace=wrap;html=1;strokeColor=#452C2C;fillColor=#452C2C;" parent="1" vertex="1">
                    <mxGeometry x="1360" y="960" width="40" height="40" as="geometry"/>
                </mxCell>
                <mxCell id="668" value="" style="rounded=0;whiteSpace=wrap;html=1;strokeColor=#452C2C;fillColor=#452C2C;" parent="1" vertex="1">
                    <mxGeometry x="1400" y="960" width="40" height="40" as="geometry"/>
                </mxCell>
                <mxCell id="669" value="" style="rounded=0;whiteSpace=wrap;html=1;strokeColor=#5F3D3D;fillColor=#5F3D3D;" parent="1" vertex="1">
                    <mxGeometry x="1160" y="920" width="40" height="40" as="geometry"/>
                </mxCell>
                <mxCell id="670" value="" style="rounded=0;whiteSpace=wrap;html=1;strokeColor=#5F3D3D;fillColor=#5F3D3D;" parent="1" vertex="1">
                    <mxGeometry x="1200" y="920" width="40" height="40" as="geometry"/>
                </mxCell>
                <mxCell id="671" value="" style="rounded=0;whiteSpace=wrap;html=1;strokeColor=#5F3D3D;fillColor=#5F3D3D;" parent="1" vertex="1">
                    <mxGeometry x="1240" y="920" width="40" height="40" as="geometry"/>
                </mxCell>
                <mxCell id="672" value="" style="rounded=0;whiteSpace=wrap;html=1;strokeColor=#5F3D3D;fillColor=#5F3D3D;" parent="1" vertex="1">
                    <mxGeometry x="1280" y="920" width="40" height="40" as="geometry"/>
                </mxCell>
                <mxCell id="673" value="" style="rounded=0;whiteSpace=wrap;html=1;strokeColor=#5F3D3D;fillColor=#5F3D3D;" parent="1" vertex="1">
                    <mxGeometry x="1320" y="920" width="40" height="40" as="geometry"/>
                </mxCell>
                <mxCell id="674" value="" style="rounded=0;whiteSpace=wrap;html=1;strokeColor=#5F3D3D;fillColor=#5F3D3D;" parent="1" vertex="1">
                    <mxGeometry x="1360" y="920" width="40" height="40" as="geometry"/>
                </mxCell>
                <mxCell id="675" value="" style="rounded=0;whiteSpace=wrap;html=1;strokeColor=#5F3D3D;fillColor=#5F3D3D;" parent="1" vertex="1">
                    <mxGeometry x="1400" y="920" width="40" height="40" as="geometry"/>
                </mxCell>
                <mxCell id="676" value="" style="rounded=0;whiteSpace=wrap;html=1;strokeColor=#5F3D3D;fillColor=#5F3D3D;" parent="1" vertex="1">
                    <mxGeometry x="1160" y="880" width="40" height="40" as="geometry"/>
                </mxCell>
                <mxCell id="677" value="" style="rounded=0;whiteSpace=wrap;html=1;strokeColor=#5F3D3D;fillColor=#5F3D3D;" parent="1" vertex="1">
                    <mxGeometry x="1200" y="880" width="40" height="40" as="geometry"/>
                </mxCell>
                <mxCell id="678" value="" style="rounded=0;whiteSpace=wrap;html=1;strokeColor=#5F3D3D;fillColor=#5F3D3D;" parent="1" vertex="1">
                    <mxGeometry x="1240" y="880" width="40" height="40" as="geometry"/>
                </mxCell>
                <mxCell id="679" value="" style="rounded=0;whiteSpace=wrap;html=1;strokeColor=#5F3D3D;fillColor=#5F3D3D;" parent="1" vertex="1">
                    <mxGeometry x="1280" y="880" width="40" height="40" as="geometry"/>
                </mxCell>
                <mxCell id="680" value="" style="rounded=0;whiteSpace=wrap;html=1;strokeColor=#5F3D3D;fillColor=#5F3D3D;" parent="1" vertex="1">
                    <mxGeometry x="1320" y="880" width="40" height="40" as="geometry"/>
                </mxCell>
                <mxCell id="681" value="" style="rounded=0;whiteSpace=wrap;html=1;strokeColor=#5F3D3D;fillColor=#5F3D3D;" parent="1" vertex="1">
                    <mxGeometry x="1360" y="880" width="40" height="40" as="geometry"/>
                </mxCell>
                <mxCell id="682" value="" style="rounded=0;whiteSpace=wrap;html=1;strokeColor=#5F3D3D;fillColor=#5F3D3D;" parent="1" vertex="1">
                    <mxGeometry x="1400" y="880" width="40" height="40" as="geometry"/>
                </mxCell>
                <mxCell id="683" value="" style="rounded=0;whiteSpace=wrap;html=1;strokeColor=#9B6666;fillColor=#9B6666;" parent="1" vertex="1">
                    <mxGeometry x="1160" y="840" width="40" height="40" as="geometry"/>
                </mxCell>
                <mxCell id="684" value="" style="rounded=0;whiteSpace=wrap;html=1;strokeColor=#9B6666;fillColor=#9B6666;" parent="1" vertex="1">
                    <mxGeometry x="1200" y="840" width="40" height="40" as="geometry"/>
                </mxCell>
                <mxCell id="685" value="" style="rounded=0;whiteSpace=wrap;html=1;strokeColor=#9B6666;fillColor=#9B6666;" parent="1" vertex="1">
                    <mxGeometry x="1240" y="840" width="40" height="40" as="geometry"/>
                </mxCell>
                <mxCell id="686" value="" style="rounded=0;whiteSpace=wrap;html=1;strokeColor=#9B6666;fillColor=#9B6666;" parent="1" vertex="1">
                    <mxGeometry x="1280" y="840" width="40" height="40" as="geometry"/>
                </mxCell>
                <mxCell id="687" value="" style="rounded=0;whiteSpace=wrap;html=1;strokeColor=#9B6666;fillColor=#9B6666;" parent="1" vertex="1">
                    <mxGeometry x="1320" y="840" width="40" height="40" as="geometry"/>
                </mxCell>
                <mxCell id="688" value="" style="rounded=0;whiteSpace=wrap;html=1;strokeColor=#9B6666;fillColor=#9B6666;" parent="1" vertex="1">
                    <mxGeometry x="1360" y="840" width="40" height="40" as="geometry"/>
                </mxCell>
                <mxCell id="690" value="" style="rounded=0;whiteSpace=wrap;html=1;strokeColor=#5F3D3D;fillColor=#5F3D3D;" parent="1" vertex="1">
                    <mxGeometry x="1160" y="800" width="40" height="40" as="geometry"/>
                </mxCell>
                <mxCell id="691" value="" style="rounded=0;whiteSpace=wrap;html=1;strokeColor=#5F3D3D;fillColor=#5F3D3D;" parent="1" vertex="1">
                    <mxGeometry x="1200" y="800" width="40" height="40" as="geometry"/>
                </mxCell>
                <mxCell id="692" value="" style="rounded=0;whiteSpace=wrap;html=1;strokeColor=#5F3D3D;fillColor=#5F3D3D;" parent="1" vertex="1">
                    <mxGeometry x="1240" y="800" width="40" height="40" as="geometry"/>
                </mxCell>
                <mxCell id="693" value="" style="rounded=0;whiteSpace=wrap;html=1;strokeColor=#5F3D3D;fillColor=#5F3D3D;" parent="1" vertex="1">
                    <mxGeometry x="1280" y="800" width="40" height="40" as="geometry"/>
                </mxCell>
                <mxCell id="694" value="" style="rounded=0;whiteSpace=wrap;html=1;strokeColor=#5F3D3D;fillColor=#5F3D3D;" parent="1" vertex="1">
                    <mxGeometry x="1320" y="800" width="40" height="40" as="geometry"/>
                </mxCell>
                <mxCell id="695" value="" style="rounded=0;whiteSpace=wrap;html=1;strokeColor=#5F3D3D;fillColor=#5F3D3D;" parent="1" vertex="1">
                    <mxGeometry x="1360" y="800" width="40" height="40" as="geometry"/>
                </mxCell>
                <mxCell id="696" value="" style="rounded=0;whiteSpace=wrap;html=1;strokeColor=#5F3D3D;fillColor=#5F3D3D;" parent="1" vertex="1">
                    <mxGeometry x="1400" y="800" width="40" height="40" as="geometry"/>
                </mxCell>
                <mxCell id="697" value="" style="rounded=0;whiteSpace=wrap;html=1;strokeColor=#452C2C;fillColor=#452C2C;" parent="1" vertex="1">
                    <mxGeometry x="1440" y="920" width="40" height="40" as="geometry"/>
                </mxCell>
                <mxCell id="698" value="" style="rounded=0;whiteSpace=wrap;html=1;strokeColor=#5F3D3D;fillColor=#5F3D3D;" parent="1" vertex="1">
                    <mxGeometry x="1400" y="840" width="40" height="40" as="geometry"/>
                </mxCell>
                <mxCell id="699" value="" style="rounded=0;whiteSpace=wrap;html=1;strokeColor=#5F3D3D;fillColor=#5F3D3D;" parent="1" vertex="1">
                    <mxGeometry x="1440" y="840" width="40" height="40" as="geometry"/>
                </mxCell>
                <mxCell id="700" value="" style="rounded=0;whiteSpace=wrap;html=1;strokeColor=#5F3D3D;fillColor=#5F3D3D;" parent="1" vertex="1">
                    <mxGeometry x="1440" y="880" width="40" height="40" as="geometry"/>
                </mxCell>
                <mxCell id="701" value="" style="rounded=0;whiteSpace=wrap;html=1;strokeColor=#5F3D3D;fillColor=#5F3D3D;" parent="1" vertex="1">
                    <mxGeometry x="1160" y="600" width="40" height="40" as="geometry"/>
                </mxCell>
                <mxCell id="702" value="" style="rounded=0;whiteSpace=wrap;html=1;strokeColor=#5F3D3D;fillColor=#5F3D3D;" parent="1" vertex="1">
                    <mxGeometry x="1200" y="600" width="40" height="40" as="geometry"/>
                </mxCell>
                <mxCell id="703" value="" style="rounded=0;whiteSpace=wrap;html=1;strokeColor=#5F3D3D;fillColor=#5F3D3D;" parent="1" vertex="1">
                    <mxGeometry x="1240" y="600" width="40" height="40" as="geometry"/>
                </mxCell>
                <mxCell id="704" value="" style="rounded=0;whiteSpace=wrap;html=1;strokeColor=#5F3D3D;fillColor=#5F3D3D;" parent="1" vertex="1">
                    <mxGeometry x="1280" y="600" width="40" height="40" as="geometry"/>
                </mxCell>
                <mxCell id="705" value="" style="rounded=0;whiteSpace=wrap;html=1;strokeColor=#5F3D3D;fillColor=#5F3D3D;" parent="1" vertex="1">
                    <mxGeometry x="1320" y="600" width="40" height="40" as="geometry"/>
                </mxCell>
                <mxCell id="706" value="" style="rounded=0;whiteSpace=wrap;html=1;strokeColor=#5F3D3D;fillColor=#5F3D3D;" parent="1" vertex="1">
                    <mxGeometry x="1360" y="600" width="40" height="40" as="geometry"/>
                </mxCell>
                <mxCell id="707" value="" style="rounded=0;whiteSpace=wrap;html=1;strokeColor=#5F3D3D;fillColor=#5F3D3D;" parent="1" vertex="1">
                    <mxGeometry x="1400" y="600" width="40" height="40" as="geometry"/>
                </mxCell>
                <mxCell id="708" value="" style="rounded=0;whiteSpace=wrap;html=1;strokeColor=#5F3D3D;fillColor=#5F3D3D;" parent="1" vertex="1">
                    <mxGeometry x="1160" y="560" width="40" height="40" as="geometry"/>
                </mxCell>
                <mxCell id="709" value="" style="rounded=0;whiteSpace=wrap;html=1;strokeColor=#5F3D3D;fillColor=#5F3D3D;" parent="1" vertex="1">
                    <mxGeometry x="1200" y="560" width="40" height="40" as="geometry"/>
                </mxCell>
                <mxCell id="710" value="" style="rounded=0;whiteSpace=wrap;html=1;strokeColor=#5F3D3D;fillColor=#5F3D3D;" parent="1" vertex="1">
                    <mxGeometry x="1240" y="560" width="40" height="40" as="geometry"/>
                </mxCell>
                <mxCell id="711" value="" style="rounded=0;whiteSpace=wrap;html=1;strokeColor=#5F3D3D;fillColor=#5F3D3D;" parent="1" vertex="1">
                    <mxGeometry x="1280" y="560" width="40" height="40" as="geometry"/>
                </mxCell>
                <mxCell id="712" value="" style="rounded=0;whiteSpace=wrap;html=1;strokeColor=#5F3D3D;fillColor=#5F3D3D;" parent="1" vertex="1">
                    <mxGeometry x="1320" y="560" width="40" height="40" as="geometry"/>
                </mxCell>
                <mxCell id="713" value="" style="rounded=0;whiteSpace=wrap;html=1;strokeColor=#5F3D3D;fillColor=#5F3D3D;" parent="1" vertex="1">
                    <mxGeometry x="1360" y="560" width="40" height="40" as="geometry"/>
                </mxCell>
                <mxCell id="714" value="" style="rounded=0;whiteSpace=wrap;html=1;strokeColor=#5F3D3D;fillColor=#5F3D3D;" parent="1" vertex="1">
                    <mxGeometry x="1400" y="560" width="40" height="40" as="geometry"/>
                </mxCell>
                <mxCell id="715" value="" style="rounded=0;whiteSpace=wrap;html=1;strokeColor=#9B6666;fillColor=#9B6666;" parent="1" vertex="1">
                    <mxGeometry x="1160" y="520" width="40" height="40" as="geometry"/>
                </mxCell>
                <mxCell id="716" value="" style="rounded=0;whiteSpace=wrap;html=1;strokeColor=#9B6666;fillColor=#9B6666;" parent="1" vertex="1">
                    <mxGeometry x="1200" y="520" width="40" height="40" as="geometry"/>
                </mxCell>
                <mxCell id="717" value="" style="rounded=0;whiteSpace=wrap;html=1;strokeColor=#9B6666;fillColor=#9B6666;" parent="1" vertex="1">
                    <mxGeometry x="1240" y="520" width="40" height="40" as="geometry"/>
                </mxCell>
                <mxCell id="718" value="" style="rounded=0;whiteSpace=wrap;html=1;strokeColor=#9B6666;fillColor=#9B6666;" parent="1" vertex="1">
                    <mxGeometry x="1280" y="520" width="40" height="40" as="geometry"/>
                </mxCell>
                <mxCell id="719" value="" style="rounded=0;whiteSpace=wrap;html=1;strokeColor=#9B6666;fillColor=#9B6666;" parent="1" vertex="1">
                    <mxGeometry x="1320" y="520" width="40" height="40" as="geometry"/>
                </mxCell>
                <mxCell id="720" value="" style="rounded=0;whiteSpace=wrap;html=1;strokeColor=#9B6666;fillColor=#9B6666;" parent="1" vertex="1">
                    <mxGeometry x="1360" y="520" width="40" height="40" as="geometry"/>
                </mxCell>
                <mxCell id="721" value="" style="rounded=0;whiteSpace=wrap;html=1;strokeColor=#9B6666;fillColor=#9B6666;" parent="1" vertex="1">
                    <mxGeometry x="1400" y="520" width="40" height="40" as="geometry"/>
                </mxCell>
                <mxCell id="722" value="" style="rounded=0;whiteSpace=wrap;html=1;strokeColor=#5F3D3D;fillColor=#5F3D3D;" parent="1" vertex="1">
                    <mxGeometry x="1160" y="480" width="40" height="40" as="geometry"/>
                </mxCell>
                <mxCell id="723" value="" style="rounded=0;whiteSpace=wrap;html=1;strokeColor=#5F3D3D;fillColor=#5F3D3D;" parent="1" vertex="1">
                    <mxGeometry x="1200" y="480" width="40" height="40" as="geometry"/>
                </mxCell>
                <mxCell id="724" value="" style="rounded=0;whiteSpace=wrap;html=1;strokeColor=#5F3D3D;fillColor=#5F3D3D;" parent="1" vertex="1">
                    <mxGeometry x="1240" y="480" width="40" height="40" as="geometry"/>
                </mxCell>
                <mxCell id="725" value="" style="rounded=0;whiteSpace=wrap;html=1;strokeColor=#5F3D3D;fillColor=#5F3D3D;" parent="1" vertex="1">
                    <mxGeometry x="1280" y="480" width="40" height="40" as="geometry"/>
                </mxCell>
                <mxCell id="726" value="" style="rounded=0;whiteSpace=wrap;html=1;strokeColor=#5F3D3D;fillColor=#5F3D3D;" parent="1" vertex="1">
                    <mxGeometry x="1320" y="480" width="40" height="40" as="geometry"/>
                </mxCell>
                <mxCell id="727" value="" style="rounded=0;whiteSpace=wrap;html=1;strokeColor=#5F3D3D;fillColor=#5F3D3D;" parent="1" vertex="1">
                    <mxGeometry x="1360" y="480" width="40" height="40" as="geometry"/>
                </mxCell>
                <mxCell id="728" value="" style="rounded=0;whiteSpace=wrap;html=1;strokeColor=#5F3D3D;fillColor=#5F3D3D;" parent="1" vertex="1">
                    <mxGeometry x="1400" y="480" width="40" height="40" as="geometry"/>
                </mxCell>
                <mxCell id="729" value="" style="rounded=0;whiteSpace=wrap;html=1;strokeColor=#452C2C;fillColor=#452C2C;" parent="1" vertex="1">
                    <mxGeometry x="1160" y="640" width="40" height="40" as="geometry"/>
                </mxCell>
                <mxCell id="730" value="" style="rounded=0;whiteSpace=wrap;html=1;strokeColor=#452C2C;fillColor=#452C2C;" parent="1" vertex="1">
                    <mxGeometry x="1200" y="640" width="40" height="40" as="geometry"/>
                </mxCell>
                <mxCell id="731" value="" style="rounded=0;whiteSpace=wrap;html=1;strokeColor=#452C2C;fillColor=#452C2C;" parent="1" vertex="1">
                    <mxGeometry x="1240" y="640" width="40" height="40" as="geometry"/>
                </mxCell>
                <mxCell id="732" value="" style="rounded=0;whiteSpace=wrap;html=1;strokeColor=#452C2C;fillColor=#452C2C;" parent="1" vertex="1">
                    <mxGeometry x="1280" y="640" width="40" height="40" as="geometry"/>
                </mxCell>
                <mxCell id="733" value="" style="rounded=0;whiteSpace=wrap;html=1;strokeColor=#452C2C;fillColor=#452C2C;" parent="1" vertex="1">
                    <mxGeometry x="1320" y="640" width="40" height="40" as="geometry"/>
                </mxCell>
                <mxCell id="734" value="" style="rounded=0;whiteSpace=wrap;html=1;strokeColor=#452C2C;fillColor=#452C2C;" parent="1" vertex="1">
                    <mxGeometry x="1360" y="640" width="40" height="40" as="geometry"/>
                </mxCell>
                <mxCell id="735" value="" style="rounded=0;whiteSpace=wrap;html=1;strokeColor=#452C2C;fillColor=#452C2C;" parent="1" vertex="1">
                    <mxGeometry x="1400" y="640" width="40" height="40" as="geometry"/>
                </mxCell>
                <mxCell id="736" value="" style="rounded=0;whiteSpace=wrap;html=1;strokeColor=#5F3D3D;fillColor=#5F3D3D;" parent="1" vertex="1">
                    <mxGeometry x="1440" y="600" width="40" height="40" as="geometry"/>
                </mxCell>
                <mxCell id="737" value="" style="rounded=0;whiteSpace=wrap;html=1;strokeColor=#5F3D3D;fillColor=#5F3D3D;" parent="1" vertex="1">
                    <mxGeometry x="1480" y="600" width="40" height="40" as="geometry"/>
                </mxCell>
                <mxCell id="738" value="" style="rounded=0;whiteSpace=wrap;html=1;strokeColor=#5F3D3D;fillColor=#5F3D3D;" parent="1" vertex="1">
                    <mxGeometry x="1440" y="560" width="40" height="40" as="geometry"/>
                </mxCell>
                <mxCell id="739" value="" style="rounded=0;whiteSpace=wrap;html=1;strokeColor=#5F3D3D;fillColor=#5F3D3D;" parent="1" vertex="1">
                    <mxGeometry x="1480" y="560" width="40" height="40" as="geometry"/>
                </mxCell>
                <mxCell id="740" value="" style="rounded=0;whiteSpace=wrap;html=1;strokeColor=#9B6666;fillColor=#9B6666;" parent="1" vertex="1">
                    <mxGeometry x="1440" y="520" width="40" height="40" as="geometry"/>
                </mxCell>
                <mxCell id="741" value="" style="rounded=0;whiteSpace=wrap;html=1;strokeColor=#9B6666;fillColor=#9B6666;" parent="1" vertex="1">
                    <mxGeometry x="1480" y="520" width="40" height="40" as="geometry"/>
                </mxCell>
                <mxCell id="742" value="" style="rounded=0;whiteSpace=wrap;html=1;strokeColor=#5F3D3D;fillColor=#5F3D3D;" parent="1" vertex="1">
                    <mxGeometry x="1440" y="480" width="40" height="40" as="geometry"/>
                </mxCell>
                <mxCell id="743" value="" style="rounded=0;whiteSpace=wrap;html=1;strokeColor=#5F3D3D;fillColor=#5F3D3D;" parent="1" vertex="1">
                    <mxGeometry x="1480" y="480" width="40" height="40" as="geometry"/>
                </mxCell>
                <mxCell id="744" value="" style="rounded=0;whiteSpace=wrap;html=1;strokeColor=#452C2C;fillColor=#452C2C;" parent="1" vertex="1">
                    <mxGeometry x="1440" y="640" width="40" height="40" as="geometry"/>
                </mxCell>
                <mxCell id="745" value="" style="rounded=0;whiteSpace=wrap;html=1;strokeColor=#452C2C;fillColor=#452C2C;" parent="1" vertex="1">
                    <mxGeometry x="1480" y="640" width="40" height="40" as="geometry"/>
                </mxCell>
            </root>
        </mxGraphModel>
    </diagram>
</mxfile>